<?xml version="1.0" encoding="UTF-8" standalone="no"?>
<!-- Created with Inkscape (http://www.inkscape.org/) -->

<svg
   xmlns:dc="http://purl.org/dc/elements/1.1/"
   xmlns:cc="http://creativecommons.org/ns#"
   xmlns:rdf="http://www.w3.org/1999/02/22-rdf-syntax-ns#"
   xmlns:svg="http://www.w3.org/2000/svg"
   xmlns="http://www.w3.org/2000/svg"
   xmlns:sodipodi="http://sodipodi.sourceforge.net/DTD/sodipodi-0.dtd"
   xmlns:inkscape="http://www.inkscape.org/namespaces/inkscape"
   version="1.1"
   id="svg2"
   xml:space="preserve"
   width="5291.3335"
   height="5291.3335"
   viewBox="0 0 5291.3335 5291.3335"
   sodipodi:docname="enterprise.svg"
   inkscape:version="0.92.3 (2405546, 2018-03-11)"><metadata
     id="metadata8"><rdf:RDF><cc:Work
         rdf:about=""><dc:format>image/svg+xml</dc:format><dc:type
           rdf:resource="http://purl.org/dc/dcmitype/StillImage" /><dc:title></dc:title></cc:Work></rdf:RDF></metadata><defs
     id="defs6"><radialGradient
       fx="0"
       fy="0"
       cx="0"
       cy="0"
       r="1"
       gradientUnits="userSpaceOnUse"
       gradientTransform="matrix(19842.5,0,0,-19842.5,19842.5,19842.5)"
       spreadMethod="pad"
       id="radialGradient22"><stop
         style="stop-opacity:1;stop-color:#ffffff"
         offset="0"
         id="stop16" /><stop
         style="stop-opacity:1;stop-color:#ffffff"
         offset="0.79908746"
         id="stop18" /><stop
         style="stop-opacity:1;stop-color:#f8f8f8"
         offset="1"
         id="stop20" /></radialGradient></defs><sodipodi:namedview
     pagecolor="#ffffff"
     bordercolor="#666666"
     borderopacity="1"
     objecttolerance="10"
     gridtolerance="10"
     guidetolerance="10"
     inkscape:pageopacity="0"
     inkscape:pageshadow="2"
     inkscape:window-width="1366"
     inkscape:window-height="704"
     id="namedview4"
     showgrid="false"
     inkscape:zoom="0.044601233"
     inkscape:cx="2645.6667"
     inkscape:cy="2645.6667"
     inkscape:window-x="0"
     inkscape:window-y="27"
     inkscape:window-maximized="1"
     inkscape:current-layer="g12" /><g
     id="g10"
     inkscape:groupmode="layer"
     inkscape:label="ink_ext_XXXXXX"
     transform="matrix(1.3333333,0,0,-1.3333333,0,5291.3333)"><g
       id="g12"
       transform="scale(0.1)"><g
         id="g14"
         transform="scale(2.43466)"><path
           d="M 16300,0 H 0 V 16300 H 16300 V 0"
           style="fill:url(#radialGradient22);fill-opacity:1;fill-rule:nonzero;stroke:none"
           id="path24"
           inkscape:connector-curvature="0" /></g><path
         d="m 13756,7012.3 c 0,209.2 -28.1,400.6 -84.2,574.2 -56.2,173.4 -136.6,321.5 -241.2,444 -104.6,122.5 -233.5,218.2 -386.6,287.1 -153.1,68.9 -324.2,103.4 -513,103.4 h -597.1 V 5588.3 h 597.1 c 194,0 367.5,35.6 520.7,107.1 153.1,71.5 281.9,171 386.6,298.6 104.5,127.5 183.7,278.2 237.3,451.7 53.6,173.5 80.4,362.4 80.4,566.6 z M 10441,4286.8 v 5435.7 h 2090 c 449.1,0 844.7,-71.6 1186.7,-214.4 341.9,-143 627.8,-336.9 857.5,-581.9 229.7,-244.9 403.1,-532 520.6,-861.2 117.3,-329.2 176.1,-680.2 176.1,-1052.7 0,-413.5 -65.1,-787.4 -195.3,-1121.6 -130.1,-334.4 -315.2,-620.2 -555,-857.5 -240,-237.3 -528.3,-421.1 -865.1,-551.2 -336.9,-130.2 -712,-195.2 -1125.5,-195.2 h -2090"
         style="fill:#ff3d00;fill-opacity:1;fill-rule:nonzero;stroke:none"
         id="path26"
         inkscape:connector-curvature="0" /><g
         id="g28"
         transform="scale(1.2488)"><path
           d="m 14632.5,5081.85 -386.2,1348.74 -404.7,-1348.74 z m -931.9,2703.64 h 1091.2 L 16300,3432.74 h -1213.9 l -263.6,852.1 h -1158.7 l -257.5,-852.1 h -1219.9 l 1514.2,4352.75"
           style="fill:#ff3d00;fill-opacity:1;fill-rule:nonzero;stroke:none"
           id="path30"
           inkscape:connector-curvature="0" /></g><g
         id="g32"
         transform="scale(1.50572)"><path
           d="M 16300,5592.68 H 15262.8 V 2847.01 h -991.5 v 2745.67 h -1042.4 v 864.37 H 16300 v -864.37"
           style="fill:#ff3d00;fill-opacity:1;fill-rule:nonzero;stroke:none"
           id="path34"
           inkscape:connector-curvature="0" /></g><g
         id="g36"
         transform="scale(1.79411)"><path
           d="m 15139.3,3537.24 -268.8,938.79 -281.7,-938.79 z m -648.6,1881.88 h 759.6 L 16300,2389.37 h -844.9 l -183.5,593.11 h -806.5 l -179.2,-593.11 h -849.2 l 1054,3029.75"
           style="fill:#ff3d00;fill-opacity:1;fill-rule:nonzero;stroke:none"
           id="path38"
           inkscape:connector-curvature="0" /></g><path
         d="m 13549.3,11817.4 c 0,132.6 -35.8,243.6 -107.2,333 -71.5,89.2 -163.4,134 -275.6,134 h -1232.6 v -911.1 h 1179 c 122.5,0 225.9,38.3 310.1,114.8 84.2,76.6 126.3,186.3 126.3,329.3 z m -1615.4,2465.2 v -834.5 h 1018.2 c 102.1,0 195.3,28 279.5,84.2 84.2,56.1 126.3,168.4 126.3,336.8 0,148 -35.8,253.9 -107.2,317.8 -71.5,63.7 -155.7,95.7 -252.6,95.7 z m 3131.3,-2771.5 c 0,-245 -51.1,-455.5 -153.2,-631.6 -102.1,-176.1 -242.4,-320.3 -421,-432.6 -178.7,-112.3 -386.7,-195.2 -624,-248.8 -237.3,-53.6 -488.8,-80.4 -754.1,-80.4 H 10441 v 5435.8 h 3154.2 c 188.8,0 359.9,-41 513,-122.5 153.1,-81.7 283.2,-187.6 390.4,-317.8 107.2,-130.1 190.1,-278.2 248.8,-444 58.7,-165.9 88.1,-335.7 88.1,-509.1 0,-255.3 -65.1,-499 -195.2,-731.2 -130.2,-232.3 -325.4,-407 -585.7,-524.4 311.2,-91.9 557.5,-251.5 738.8,-478.5 181.1,-227.2 271.8,-532.1 271.8,-914.9"
         style="fill:#ff3d00;fill-opacity:1;fill-rule:nonzero;stroke:none"
         id="path40"
         inkscape:connector-curvature="0" /><g
         id="g42"
         transform="scale(1.05622)"><path
           d="M 14886.6,9579.15 V 14725.6 H 16300 V 9579.15 h -1413.4"
           style="fill:#ff3d00;fill-opacity:1;fill-rule:nonzero;stroke:none"
           id="path44"
           inkscape:connector-curvature="0" /></g><g
         id="g46"
         transform="scale(1.41553)"><path
           d="m 15429.2,7466.75 c -274.1,-230.79 -589.5,-346.08 -946.5,-346.08 -248.8,0 -486.8,44.08 -713.9,132.46 -227.2,88.3 -425.5,217.23 -595,386.71 -169.5,169.47 -304.7,376.75 -405.6,622.03 -101,245.13 -151.4,524.61 -151.4,838.27 0,270.43 50.4,521.93 151.4,754.49 100.9,232.57 239.7,434.47 416.5,605.77 176.6,171.3 384.8,306.5 624.6,405.7 239.8,99.1 498.5,148.7 776.1,148.7 173.1,0 338.9,-19 497.7,-56.8 158.6,-37.8 305.5,-93.8 440.7,-167.7 135.2,-73.9 257,-162.2 365.1,-265 108.2,-102.8 196.5,-219 265.1,-348.8 l -784.3,-600.35 c -75.7,151.39 -189.3,273.11 -340.7,365.02 -151.4,91.93 -311.9,137.93 -481.4,137.93 -126.3,0 -241.6,-25.3 -346.1,-75.7 -104.6,-50.57 -194.7,-120.87 -270.4,-210.94 -75.8,-90.14 -135.3,-197.45 -178.6,-321.79 -43.2,-124.4 -64.8,-260.54 -64.8,-408.39 0,-151.4 21.6,-288.52 64.8,-411.02 43.3,-122.64 103.7,-228.11 181.2,-316.42 77.5,-88.37 170.4,-156.83 278.6,-205.5 108.2,-48.68 228.9,-73.05 362.3,-73.05 306.5,0 576.9,126.17 811.3,378.66 h -665.2 v 757.17 H 16300 V 7147.65 h -870.8 v 319.1"
           style="fill:#ff3d00;fill-opacity:1;fill-rule:nonzero;stroke:none"
           id="path48"
           inkscape:connector-curvature="0" /></g><g
         id="g50"
         transform="scale(2.05861)"><path
           d="m 6649.72,16300 c -301.46,0 -588.26,-95.1 -829.3,-275 -165.54,-123.5 -301.8,-283.2 -398.42,-465.9 -21.13,1.3 -42.31,2 -63.44,2 -561.51,0 -1018.31,-456.8 -1018.31,-1018.3 0,-182.3 47.68,-357.4 137.09,-511 52.35,29.5 111.84,47.8 175.16,51.7 36.99,89 95.31,167.5 170.94,229.3 80.49,66 175.56,108.9 277.13,125.6 58.83,102.9 140.92,191.9 239.43,259.1 130.19,88.8 282.57,135.7 440.64,135.7 170.07,0 331.87,-53.6 467.84,-155.1 93.41,-69.7 170.26,-159.8 224.76,-262.9 11.9,0.8 23.9,1.1 35.8,1.1 316.77,0 574.47,-257.6 574.47,-574.5 0,-112 -31.92,-219.3 -91.47,-311.3 l 1008.35,-3.7 c -3.01,25.2 -4.52,50.7 -4.52,76.2 0,175.5 69.76,335 182.99,452.2 l -374.96,1.4 c -9.82,0.1 -19.58,1 -29.29,2.6 -270.04,46.1 -515.26,174.3 -709.12,370.6 -243.66,246.6 -377.83,573.4 -377.83,920.2 0,345.3 134.31,659.8 353.49,894 -126.06,37 -257.6,56 -391.43,56"
           style="fill:#8cd8d6;fill-opacity:1;fill-rule:nonzero;stroke:none"
           id="path52"
           inkscape:connector-curvature="0" /></g><g
         id="g54"
         transform="scale(2.22406)"><path
           d="m 8939.49,16300 c -358.89,0 -700.29,-113.2 -987.29,-327.4 -197.02,-147 -359.25,-337.1 -474.26,-554.6 -25.14,1.5 -50.41,2.3 -75.59,2.3 -348.77,0 -663.65,-148.1 -885,-384.7 127.61,-37.4 249.09,-94.7 360.65,-170.9 161.64,-110.2 296.35,-256.2 392.84,-425 166.63,-27.5 322.65,-97.9 454.66,-206 124.1,-101.6 219.82,-230.4 280.48,-376.4 168.25,-10.2 319.95,-82.7 432.23,-194.8 60.87,25.2 124.63,43.4 190.19,54.2 86.82,151.9 208.04,283.3 353.4,382.4 192.13,131.1 417.08,200.4 650.39,200.4 251.03,0 489.81,-79.2 690.61,-229 137.8,-102.9 251.3,-235.9 331.7,-388 17.6,1.1 35.3,1.6 52.9,1.6 28.4,0 56.6,-1.4 84.3,-4.1 71.1,51 156.7,83 249.4,88.6 43.3,104.4 111.7,196.5 200.4,269.1 94.4,77.2 205.9,127.6 325,147.2 69,120.7 165.3,225.1 280.8,303.8 1.2,0.9 2.5,1.7 3.7,2.6 -141.5,130.5 -326.8,214.2 -531,226.6 -78,187.8 -201.1,353.4 -360.7,484.1 -169.8,139 -370.4,229.6 -584.8,264.9 -124.1,217.1 -297.3,404.9 -505.18,546.7 -274.72,187.4 -596.25,286.4 -929.83,286.4"
           style="fill:#8cd8d6;fill-opacity:1;fill-rule:nonzero;stroke:none"
           id="path56"
           inkscape:connector-curvature="0" /></g><g
         id="g58"
         transform="scale(2.05155)"><path
           d="m 7065.4,16300 c -219.98,-235 -354.75,-550.6 -354.75,-897.2 0,-347.9 134.68,-675.8 379.18,-923.3 194.53,-197 440.59,-325.6 711.56,-371.8 9.7,-1.7 19.54,-2.6 29.39,-2.6 l 376.3,-1.4 c 110.26,114.1 261.61,188.3 429.92,198.5 59.22,142.4 152.52,268 273.55,367.1 72.43,59.3 152.32,107 237.24,142.1 -121.72,121.5 -286.18,200.1 -468.58,211.2 -65.75,158.3 -169.53,297.9 -304.01,408 -143.16,117.2 -312.3,193.6 -492.95,223.3 -104.6,183.1 -250.64,341.4 -425.82,460.8 -120.99,82.5 -252.69,144.7 -391.03,185.3"
           style="fill:#54c7d6;fill-opacity:1;fill-rule:nonzero;stroke:none"
           id="path60"
           inkscape:connector-curvature="0" /></g><g
         id="g62"
         transform="scale(1.77458)"><path
           d="m 10790.3,16300 c -30.4,-106.7 -81.6,-207.3 -151.5,-294.6 -116.4,-145.7 -279.7,-249.8 -459.9,-293.1 -6.1,-1.5 -12.3,-2.5 -18.5,-3.3 l -155.5,-18.7 c -6.04,-0.7 -12.13,-1.1 -18.27,-1.1 h -3.61 -1.74 l -700.39,2.6 c 16.62,-139.2 71.9,-272.5 159.81,-382.5 104.76,-131 251.66,-224.7 413.84,-263.7 5.47,-1.3 11.05,-2.3 16.63,-3 l 139.83,-16.8 c 5.4,-0.6 11,-1 16.4,-1 h 3.3 1.6 l 3544,13.3 c 8,0 16,0.7 23.8,2.1 219.1,37.3 418.1,141.3 575.4,300.6 191,193.3 299.1,447.4 306.2,718.1 l -606.6,-2.3 h -1.2 -2.6 c -4.4,0.1 -8.7,0.4 -13.1,0.9 l -111,13.3 c -4.5,0.6 -8.9,1.4 -13.3,2.4 -128.8,31 -245.5,105.4 -328.8,209.5 -1.9,2.5 -3.9,5 -5.9,7.6 l -2608.9,9.7"
           style="fill:#8cd8d6;fill-opacity:1;fill-rule:nonzero;stroke:none"
           id="path64"
           inkscape:connector-curvature="0" /></g><g
         id="g66"
         transform="scale(1.77511)"><path
           d="m 9485.1,16300 c -131.32,-135.9 -212.21,-320.9 -212.21,-524.4 0,-29.7 1.74,-59.2 5.24,-88.5 l 700.18,-2.6 h 1.74 3.67 c 6.08,0 12.17,0.4 18.28,1.2 l 155.3,18.6 c 6.2,0.8 12.4,1.9 18.6,3.3 180.1,43.4 343.4,147.4 459.8,293 69.8,87.4 121,187.9 151.4,294.6 l -1302,4.8"
           style="fill:#54c7d6;fill-opacity:1;fill-rule:nonzero;stroke:none"
           id="path68"
           inkscape:connector-curvature="0" /></g><g
         id="g70"
         transform="scale(1.9511)"><path
           d="m 10979.8,16300 c -266,0 -522.4,-79 -741.4,-228.4 -165.7,-113 -303.89,-262.7 -402.86,-435.9 -74.73,-12.3 -147.41,-33 -216.8,-61.7 138.64,-138.4 224.49,-329.6 224.49,-540.4 0,-70.7 -9.95,-140.8 -29.12,-208.3 l 2372.89,-8.8 c -73.6,95.1 -114,213.1 -114,333.5 0,182.7 90.3,344.7 228.5,443.9 -31.6,3.1 -63.7,4.7 -96.1,4.7 -20.1,0 -40.3,-0.6 -60.3,-1.9 -91.7,173.5 -221,325 -378.1,442.3 -228.9,170.7 -501.1,261 -787.2,261"
           style="fill:#54c7d6;fill-opacity:1;fill-rule:nonzero;stroke:none"
           id="path72"
           inkscape:connector-curvature="0" /></g><g
         id="g74"
         transform="scale(1.86419)"><path
           d="m 10067.1,16300 c -93.4,-38.7 -181.32,-91.2 -261.03,-156.4 -133.2,-109.1 -235.87,-247.3 -301.04,-404 -185.23,-11.2 -351.79,-92.9 -473.18,-218.5 l 1239.75,-4.6 c 20.1,70.6 30.6,144 30.6,217.9 0,220.7 -89.9,420.8 -235.1,565.6"
           style="fill:#2ebad6;fill-opacity:1;fill-rule:nonzero;stroke:none"
           id="path76"
           inkscape:connector-curvature="0" /></g><g
         id="g78"
         transform="scale(1.99864)"><path
           d="m 13758.5,16300 c -204.6,0 -401.8,-60.3 -570.9,-174.3 190.3,-175.4 309.7,-426.6 309.7,-705.1 0,-216.4 -74.4,-428.7 -209.6,-597.8 -117.8,-147.5 -277.8,-257.6 -455.9,-315.2 17.5,-71.7 26.8,-146.6 26.8,-223.6 0,-8.5 -0.2,-17 -0.4,-25.4 l 1961.7,7.3 c 5.6,0.1 11.2,0.6 16.8,1.5 154.5,26.4 294.9,99.7 405.9,212.1 139.4,141.2 216.2,328.3 216.2,526.8 0,413.3 -336.2,749.7 -749.6,749.7 -15.6,0 -31.2,-0.5 -46.8,-1.5 -71.1,134.5 -171.4,252.1 -293.3,343 -177.5,132.5 -388.6,202.5 -610.6,202.5"
           style="fill:#8cd8d6;fill-opacity:1;fill-rule:nonzero;stroke:none"
           id="path80"
           inkscape:connector-curvature="0" /></g><g
         id="g82"
         transform="scale(1.97727)"><path
           d="m 13330.2,16300 c -1.4,-1 -2.8,-1.9 -4.2,-2.9 -129.9,-88.6 -238.2,-206 -315.8,-341.7 -134,-22.1 -259.5,-78.7 -365.6,-165.6 -99.7,-81.7 -176.7,-185.2 -225.5,-302.6 -104.2,-6.3 -200.4,-42.4 -280.4,-99.8 405.6,-40.2 737.3,-335.6 831.8,-723 180,58.2 341.7,169.5 460.8,318.6 136.6,170.9 211.9,385.5 211.9,604.3 0,281.5 -120.7,535.4 -313,712.7"
           style="fill:#54c7d6;fill-opacity:1;fill-rule:nonzero;stroke:none"
           id="path84"
           inkscape:connector-curvature="0" /></g><g
         id="g86"
         transform="scale(1.77886)"><path
           d="m 14417.2,16300 c -25.7,-8.3 -51.7,-15.6 -77.9,-21.9 -7.9,-1.9 -15.8,-3.3 -23.8,-4.3 l -199.4,-24 c -7.8,-0.9 -15.6,-1.4 -23.5,-1.5 h -4.6 -2.3 l -718.7,2.7 c 1.9,-2.5 3.9,-5 5.9,-7.5 83,-103.9 199.5,-178.1 327.9,-209 4.4,-1 8.8,-1.8 13.3,-2.4 l 110.8,-13.3 c 4.3,-0.5 8.6,-0.8 13,-0.8 h 2.6 1.2 l 605.2,2.3 c 0.2,9.4 0.3,18.9 0.3,28.5 0,86.5 -10.4,170.6 -30,251.2"
           style="fill:#54c7d6;fill-opacity:1;fill-rule:nonzero;stroke:none"
           id="path88"
           inkscape:connector-curvature="0" /></g><g
         id="g90"
         transform="scale(1.86657)"><path
           d="m 12858.6,16300 c -144.5,-103.6 -238.8,-273 -238.8,-464 0,-125.8 42.2,-249.1 119.1,-348.6 l 685,-2.5 h 2.1 4.4 c 7.5,0 15,0.5 22.4,1.3 l 190,22.9 c 7.7,0.9 15.2,2.3 22.7,4.1 25,6 49.8,13 74.2,20.9 -100.1,410.3 -451.4,723.3 -881.1,765.9"
           style="fill:#2ebad6;fill-opacity:1;fill-rule:nonzero;stroke:none"
           id="path92"
           inkscape:connector-curvature="0" /></g><g
         id="g94"
         transform="scale(1.77215)"><path
           d="m 5201.09,16300 c -144.32,-81.5 -241.99,-236.3 -241.99,-413.5 0,-107.1 36.83,-212.1 103.67,-295.8 65.78,-82.3 158.04,-141.1 259.85,-165.5 3.44,-0.9 6.95,-1.5 10.47,-1.9 l 87.77,-10.6 c 3.45,-0.4 6.9,-0.6 10.35,-0.7 h 2.05 0.99 l 2225.55,8.4 c 4.97,0 9.99,0.4 14.9,1.3 137.63,23.5 262.56,88.8 361.31,188.8 32.73,33.1 61.51,69 86.28,107.2 l -2072.23,7.7 c -8.86,0.1 -17.72,0.9 -26.46,2.4 -243.89,41.7 -465.37,157.3 -640.49,334.6 -71.3,72.3 -132.23,152 -182.02,237.6"
           style="fill:#8cd8d6;fill-opacity:1;fill-rule:nonzero;stroke:none"
           id="path96"
           inkscape:connector-curvature="0" /></g><g
         id="g98"
         transform="scale(1.87337)"><path
           d="m 6352.26,16300 c -173.7,0 -341.15,-51.6 -484.21,-149.2 -108.26,-73.8 -198.47,-171.6 -263.11,-284.6 -111.62,-18.4 -216.08,-65.6 -304.53,-138 -83.11,-68 -147.2,-154.3 -187.85,-252.1 -69.59,-4.2 -134.96,-24.3 -192.49,-56.8 47.11,-81 104.74,-156.4 172.2,-224.7 165.64,-167.7 375.16,-277.2 605.87,-316.6 8.27,-1.4 16.65,-2.2 25.04,-2.2 l 1960.27,-7.3 c 65.44,101.1 100.51,219 100.51,342.1 0,348.1 -283.18,631.3 -631.27,631.3 -13.13,0 -26.26,-0.4 -39.34,-1.2 -59.9,113.3 -144.39,212.2 -246.99,288.8 -149.41,111.5 -327.22,170.5 -514.1,170.5"
           style="fill:#54c7d6;fill-opacity:1;fill-rule:nonzero;stroke:none"
           id="path100"
           inkscape:connector-curvature="0" /></g><g
         id="g102"
         transform="scale(1.69582)"><path
           d="m 7411.54,15316.7 c 0,-32.7 -26.48,-59.1 -59.15,-59.1 h -12.09 c -32.61,0 -59.08,26.4 -59.08,59.1 v 924.2 c 0,32.6 26.47,59.1 59.08,59.1 h 12.09 c 32.67,0 59.15,-26.5 59.15,-59.1 v -924.2"
           style="fill:#8cd8d6;fill-opacity:1;fill-rule:nonzero;stroke:none"
           id="path104"
           inkscape:connector-curvature="0" /></g><g
         id="g106"
         transform="scale(1.03571)"><path
           d="m 12351.5,14690 c 0,-53.4 -43.2,-96.8 -96.7,-96.8 h -19.8 c -53.5,0 -96.8,43.4 -96.8,96.8 v 1513.3 c 0,53.4 43.3,96.7 96.8,96.7 h 19.8 c 53.5,0 96.7,-43.3 96.7,-96.7 V 14690"
           style="fill:#8cd8d6;fill-opacity:1;fill-rule:nonzero;stroke:none"
           id="path108"
           inkscape:connector-curvature="0" /></g><g
         id="g110"
         transform="scale(1.56065)"><path
           d="m 7196.93,15231.5 c 0,-35.5 28.78,-64.2 64.27,-64.2 h 13.14 c 35.43,0 64.2,28.7 64.2,64.2 v 1004.2 c 0,35.5 -28.77,64.3 -64.2,64.3 h -13.14 c -35.49,0 -64.27,-28.8 -64.27,-64.3 v -1004.2"
           style="fill:#8cd8d6;fill-opacity:1;fill-rule:nonzero;stroke:none"
           id="path112"
           inkscape:connector-curvature="0" /></g><g
         id="g114"
         transform="scale(1.16128)"><path
           d="m 9671.98,14864 c 0,-47.6 38.67,-86.3 86.37,-86.3 H 9776 c 47.63,0 86.29,38.7 86.29,86.3 v 1349.6 c 0,47.7 -38.66,86.4 -86.29,86.4 h -17.65 c -47.7,0 -86.37,-38.7 -86.37,-86.4 V 14864"
           style="fill:#8cd8d6;fill-opacity:1;fill-rule:nonzero;stroke:none"
           id="path116"
           inkscape:connector-curvature="0" /></g><g
         id="g118"
         transform="scale(1.25576)"><path
           d="m 10008.8,14972 c 0,-44 -35.8,-79.8 -79.92,-79.8 h -16.32 c -44.04,0 -79.8,35.8 -79.8,79.8 v 1248.1 c 0,44.1 35.76,79.9 79.8,79.9 h 16.32 c 44.12,0 79.92,-35.8 79.92,-79.9 V 14972"
           style="fill:#8cd8d6;fill-opacity:1;fill-rule:nonzero;stroke:none"
           id="path120"
           inkscape:connector-curvature="0" /></g><g
         id="g122"
         transform="scale(1.17482)"><path
           d="m 11459.9,14880.6 c 0,-47.1 -38.2,-85.3 -85.4,-85.3 h -17.4 c -47.1,0 -85.3,38.2 -85.3,85.3 v 1334 c 0,47.2 38.2,85.4 85.3,85.4 h 17.4 c 47.2,0 85.4,-38.2 85.4,-85.4 v -1334"
           style="fill:#8cd8d6;fill-opacity:1;fill-rule:nonzero;stroke:none"
           id="path124"
           inkscape:connector-curvature="0" /></g><g
         id="g126"
         transform="scale(1.61094)"><path
           d="m 9049.91,15264.8 c 0,-34.3 -27.81,-62.2 -62.2,-62.2 h -12.73 c -34.39,0 -62.2,27.9 -62.2,62.2 v 972.9 c 0,34.4 27.81,62.3 62.2,62.3 h 12.73 c 34.39,0 62.2,-27.9 62.2,-62.3 v -972.9"
           style="fill:#8cd8d6;fill-opacity:1;fill-rule:nonzero;stroke:none"
           id="path128"
           inkscape:connector-curvature="0" /></g><g
         id="g130"
         transform="scale(1.65761)"><path
           d="m 9334.9,15294 c 0,-33.4 -27.09,-60.5 -60.45,-60.5 h -12.36 c -33.43,0 -60.51,27.1 -60.51,60.5 v 945.5 c 0,33.4 27.08,60.5 60.51,60.5 h 12.36 c 33.36,0 60.45,-27.1 60.45,-60.5 V 15294"
           style="fill:#8cd8d6;fill-opacity:1;fill-rule:nonzero;stroke:none"
           id="path132"
           inkscape:connector-curvature="0" /></g><g
         id="g134"
         transform="scale(1.40074)"><path
           d="m 10092.5,15109.6 c 0,-39.6 32.1,-71.6 71.6,-71.6 h 14.6 c 39.6,0 71.6,32 71.6,71.6 v 1118.9 c 0,39.4 -32,71.5 -71.6,71.5 h -14.6 c -39.5,0 -71.6,-32.1 -71.6,-71.5 v -1118.9"
           style="fill:#8cd8d6;fill-opacity:1;fill-rule:nonzero;stroke:none"
           id="path136"
           inkscape:connector-curvature="0" /></g><g
         id="g138"
         transform="scale(1.31979)"><path
           d="m 10033.6,15036.5 c 0,-41.9 34,-75.9 76,-75.9 h 15.5 c 42,0 76,34 76,75.9 v 1187.6 c 0,42 -34,75.9 -76,75.9 h -15.5 c -42,0 -76,-33.9 -76,-75.9 v -1187.6"
           style="fill:#8cd8d6;fill-opacity:1;fill-rule:nonzero;stroke:none"
           id="path140"
           inkscape:connector-curvature="0" /></g><g
         id="g142"
         transform="scale(1.17088)"><path
           d="m 12451.2,14875.9 c 0,-47.4 -38.3,-85.7 -85.6,-85.7 h -17.5 c -47.3,0 -85.6,38.3 -85.6,85.7 v 1338.5 c 0,47.3 38.3,85.6 85.6,85.6 h 17.5 c 47.3,0 85.6,-38.3 85.6,-85.6 v -1338.5"
           style="fill:#8cd8d6;fill-opacity:1;fill-rule:nonzero;stroke:none"
           id="path144"
           inkscape:connector-curvature="0" /></g><g
         id="g146"
         transform="scale(1.08994)"><path
           d="m 14196.8,14770.1 c 0,-50.8 -41.2,-91.9 -92,-91.9 h -18.8 c -50.8,0 -92,41.1 -92,91.9 v 1438 c 0,50.8 41.2,91.9 92,91.9 h 18.8 c 50.8,0 92,-41.1 92,-91.9 v -1438"
           style="fill:#8cd8d6;fill-opacity:1;fill-rule:nonzero;stroke:none"
           id="path148"
           inkscape:connector-curvature="0" /></g><g
         id="g150"
         transform="scale(1.69582)"><path
           d="m 9782.49,15316.7 c 0,-32.7 -26.48,-59.1 -59.15,-59.1 h -12.09 c -32.61,0 -59.08,26.4 -59.08,59.1 v 924.2 c 0,32.6 26.47,59.1 59.08,59.1 h 12.09 c 32.67,0 59.15,-26.5 59.15,-59.1 v -924.2"
           style="fill:#8cd8d6;fill-opacity:1;fill-rule:nonzero;stroke:none"
           id="path152"
           inkscape:connector-curvature="0" /></g><g
         id="g154"
         transform="scale(1.59115)"><path
           d="m 10988.3,15252 c 0,-34.8 -28.2,-63 -63,-63 h -12.9 c -34.8,0 -63,28.2 -63,63 v 985 c 0,34.8 28.2,63 63,63 h 12.9 c 34.8,0 63,-28.2 63,-63 v -985"
           style="fill:#8cd8d6;fill-opacity:1;fill-rule:nonzero;stroke:none"
           id="path156"
           inkscape:connector-curvature="0" /></g><g
         id="g158"
         transform="scale(1.48561)"><path
           d="m 10869.1,15177.5 c 0,-37.2 30.2,-67.4 67.5,-67.4 h 13.8 c 37.2,0 67.5,30.2 67.5,67.4 v 1055 c 0,37.3 -30.3,67.5 -67.5,67.5 h -13.8 c -37.3,0 -67.5,-30.2 -67.5,-67.5 v -1055"
           style="fill:#8cd8d6;fill-opacity:1;fill-rule:nonzero;stroke:none"
           id="path160"
           inkscape:connector-curvature="0" /></g><g
         id="g162"
         transform="scale(1.49347)"><path
           d="m 10212.8,15183.5 c 0,-37.1 30.1,-67.2 67.2,-67.2 h 13.7 c 37.1,0 67.1,30.1 67.1,67.2 v 1049.4 c 0,37 -30,67.1 -67.1,67.1 h -13.7 c -37.1,0 -67.2,-30.1 -67.2,-67.1 v -1049.4"
           style="fill:#8cd8d6;fill-opacity:1;fill-rule:nonzero;stroke:none"
           id="path164"
           inkscape:connector-curvature="0" /></g><g
         id="g166"
         transform="scale(1.03572)"><path
           d="m 16017.2,14689.9 c 0,-53.4 -43.4,-96.7 -96.8,-96.7 h -19.8 c -53.4,0 -96.8,43.3 -96.8,96.7 v 1513.3 c 0,53.5 43.4,96.8 96.8,96.8 h 19.8 c 53.4,0 96.8,-43.3 96.8,-96.8 v -1513.3"
           style="fill:#8cd8d6;fill-opacity:1;fill-rule:nonzero;stroke:none"
           id="path168"
           inkscape:connector-curvature="0" /></g><g
         id="g170"
         transform="scale(1.17482)"><path
           d="m 14882.3,14880.6 c 0,-47.1 -38.2,-85.3 -85.3,-85.3 h -17.5 c -47.1,0 -85.3,38.2 -85.3,85.3 v 1334 c 0,47.2 38.2,85.4 85.3,85.4 h 17.5 c 47.1,0 85.3,-38.2 85.3,-85.4 v -1334"
           style="fill:#8cd8d6;fill-opacity:1;fill-rule:nonzero;stroke:none"
           id="path172"
           inkscape:connector-curvature="0" /></g><g
         id="g174"
         transform="scale(1.61094)"><path
           d="m 11545.8,15264.8 c 0,-34.3 -27.9,-62.2 -62.2,-62.2 h -12.8 c -34.3,0 -62.2,27.9 -62.2,62.2 v 972.9 c 0,34.4 27.9,62.3 62.2,62.3 h 12.8 c 34.3,0 62.2,-27.9 62.2,-62.3 v -972.9"
           style="fill:#8cd8d6;fill-opacity:1;fill-rule:nonzero;stroke:none"
           id="path176"
           inkscape:connector-curvature="0" /></g><g
         id="g178"
         transform="scale(1.53)"><path
           d="m 12741.4,15210.1 c 0,-36.2 -29.4,-65.5 -65.5,-65.5 h -13.4 c -36.2,0 -65.6,29.3 -65.6,65.5 v 1024.3 c 0,36.3 29.4,65.6 65.6,65.6 h 13.4 c 36.1,0 65.5,-29.3 65.5,-65.6 v -1024.3"
           style="fill:#8cd8d6;fill-opacity:1;fill-rule:nonzero;stroke:none"
           id="path180"
           inkscape:connector-curvature="0" /></g><g
         id="g182"
         transform="scale(1.40074)"><path
           d="m 12963,15109.6 c 0,-39.6 32,-71.6 71.5,-71.6 h 14.6 c 39.6,0 71.6,32 71.6,71.6 v 1118.9 c 0,39.4 -32,71.5 -71.6,71.5 h -14.6 c -39.5,0 -71.5,-32.1 -71.5,-71.5 v -1118.9"
           style="fill:#8cd8d6;fill-opacity:1;fill-rule:nonzero;stroke:none"
           id="path184"
           inkscape:connector-curvature="0" /></g><g
         id="g186"
         transform="scale(1.31979)"><path
           d="m 13080.1,15036.5 c 0,-41.9 34,-75.9 75.9,-75.9 h 15.5 c 42,0 76,34 76,75.9 v 1187.6 c 0,42 -34,75.9 -76,75.9 h -15.5 c -41.9,0 -75.9,-33.9 -75.9,-75.9 v -1187.6"
           style="fill:#8cd8d6;fill-opacity:1;fill-rule:nonzero;stroke:none"
           id="path188"
           inkscape:connector-curvature="0" /></g><g
         id="g190"
         transform="scale(1.17088)"><path
           d="m 15885.1,14875.9 c 0,-47.4 -38.3,-85.7 -85.6,-85.7 h -17.5 c -47.3,0 -85.6,38.3 -85.6,85.7 v 1338.5 c 0,47.3 38.3,85.6 85.6,85.6 h 17.5 c 47.3,0 85.6,-38.3 85.6,-85.6 v -1338.5"
           style="fill:#8cd8d6;fill-opacity:1;fill-rule:nonzero;stroke:none"
           id="path192"
           inkscape:connector-curvature="0" /></g><g
         id="g194"
         transform="scale(1.19597)"><path
           d="m 16300,13460.6 c 0,-46.3 -37.5,-83.8 -83.8,-83.8 h -17.1 c -46.3,0 -83.9,37.5 -83.9,83.8 v 1310.5 c 0,46.3 37.6,83.8 83.9,83.8 h 17.1 c 46.3,0 83.8,-37.5 83.8,-83.8 v -1310.5"
           style="fill:#8cd8d6;fill-opacity:1;fill-rule:nonzero;stroke:none"
           id="path196"
           inkscape:connector-curvature="0" /></g><g
         id="g198"
         transform="scale(1.6245)"><path
           d="m 16164,10874.6 c 0,34.1 27.6,61.7 61.7,61.7 h 12.6 c 34.1,0 61.7,-27.6 61.7,-61.7 v -964.8 c 0,-34.04 -27.6,-61.68 -61.7,-61.68 h -12.6 c -34.1,0 -61.7,27.64 -61.7,61.68 v 964.8"
           style="fill:#8cd8d6;fill-opacity:1;fill-rule:nonzero;stroke:none"
           id="path200"
           inkscape:connector-curvature="0" /></g><g
         id="g202"
         transform="scale(1.56962)"><path
           d="m 16159.2,12095.4 c 0,35.2 28.6,63.9 63.8,63.9 h 13.1 c 35.3,0 63.9,-28.7 63.9,-63.9 v -998.5 c 0,-35.3 -28.6,-63.9 -63.9,-63.9 h -13.1 c -35.2,0 -63.8,28.6 -63.8,63.9 v 998.5"
           style="fill:#8cd8d6;fill-opacity:1;fill-rule:nonzero;stroke:none"
           id="path204"
           inkscape:connector-curvature="0" /></g><g
         id="g206"
         transform="scale(1.56962)"><path
           d="m 16159.2,8184.02 c 0,35.23 28.6,63.84 63.8,63.84 h 13.1 c 35.3,0 63.9,-28.61 63.9,-63.84 V 7185.5 c 0,-35.3 -28.6,-63.84 -63.9,-63.84 h -13.1 c -35.2,0 -63.8,28.54 -63.8,63.84 v 998.52"
           style="fill:#8cd8d6;fill-opacity:1;fill-rule:nonzero;stroke:none"
           id="path208"
           inkscape:connector-curvature="0" /></g><g
         id="g210"
         transform="scale(1.63806)"><path
           d="m 16300,12876.3 c 0,33.8 -27.4,61.2 -61.2,61.2 h -12.5 c -33.8,0 -61.2,-27.4 -61.2,-61.2 v -956.8 c 0,-33.8 27.4,-61.2 61.2,-61.2 h 12.5 c 33.8,0 61.2,27.4 61.2,61.2 v 956.8"
           style="fill:#8cd8d6;fill-opacity:1;fill-rule:nonzero;stroke:none"
           id="path212"
           inkscape:connector-curvature="0" /></g><g
         id="g214"
         transform="scale(1.63806)"><path
           d="m 16300,8921.28 c 0,33.76 -27.4,61.17 -61.2,61.17 h -12.5 c -33.8,0 -61.2,-27.41 -61.2,-61.17 v -956.8 c 0,-33.82 27.4,-61.24 61.2,-61.24 h 12.5 c 33.8,0 61.2,27.42 61.2,61.24 v 956.8"
           style="fill:#8cd8d6;fill-opacity:1;fill-rule:nonzero;stroke:none"
           id="path216"
           inkscape:connector-curvature="0" /></g><g
         id="g218"
         transform="scale(1.63806)"><path
           d="m 16300,6655.06 c 0,33.82 -27.4,61.17 -61.2,61.17 h -12.5 c -33.8,0 -61.2,-27.35 -61.2,-61.17 v -956.8 c 0,-33.82 27.4,-61.17 61.2,-61.17 h 12.5 c 33.8,0 61.2,27.35 61.2,61.17 v 956.8"
           style="fill:#8cd8d6;fill-opacity:1;fill-rule:nonzero;stroke:none"
           id="path220"
           inkscape:connector-curvature="0" /></g><g
         id="g222"
         transform="scale(1.69295)"><path
           d="m 16300,13238.1 c 0,32.8 -26.5,59.3 -59.2,59.3 h -12.1 c -32.7,0 -59.2,-26.5 -59.2,-59.3 v -925.8 c 0,-32.6 26.5,-59.1 59.2,-59.1 h 12.1 c 32.7,0 59.2,26.5 59.2,59.1 v 925.8"
           style="fill:#8cd8d6;fill-opacity:1;fill-rule:nonzero;stroke:none"
           id="path224"
           inkscape:connector-curvature="0" /></g><g
         id="g226"
         transform="scale(1.6245)"><path
           d="m 16164,15290.1 c 0,34 27.6,61.7 61.7,61.7 h 12.6 c 34.1,0 61.7,-27.7 61.7,-61.7 v -964.8 c 0,-34.1 -27.6,-61.7 -61.7,-61.7 h -12.6 c -34.1,0 -61.7,27.6 -61.7,61.7 v 964.8"
           style="fill:#8cd8d6;fill-opacity:1;fill-rule:nonzero;stroke:none"
           id="path228"
           inkscape:connector-curvature="0" /></g><g
         id="g230"
         transform="scale(1.61094)"><path
           d="m 15744.7,16237.7 c 0,34.4 27.8,62.3 62.2,62.3 h 12.7 c 34.4,0 62.3,-27.9 62.3,-62.3 v -972.9 c 0,-34.3 -27.9,-62.2 -62.3,-62.2 h -12.7 c -34.4,0 -62.2,27.9 -62.2,62.2 v 972.9"
           style="fill:#8cd8d6;fill-opacity:1;fill-rule:nonzero;stroke:none"
           id="path232"
           inkscape:connector-curvature="0" /></g><g
         id="g234"
         transform="scale(1.50117)"><path
           d="m 16152.8,12689.6 c 0,36.9 29.9,66.8 66.8,66.8 h 13.6 c 36.9,0 66.8,-29.9 66.8,-66.8 v -1044 c 0,-36.9 -29.9,-66.8 -66.8,-66.8 h -13.6 c -36.9,0 -66.8,29.9 -66.8,66.8 v 1044"
           style="fill:#8cd8d6;fill-opacity:1;fill-rule:nonzero;stroke:none"
           id="path236"
           inkscape:connector-curvature="0" /></g><g
         id="g238"
         transform="scale(1.50117)"><path
           d="m 16152.8,8754.23 c 0,36.9 29.9,66.81 66.8,66.81 h 13.6 c 36.9,0 66.8,-29.91 66.8,-66.81 V 7710.18 c 0,-36.84 -29.9,-66.75 -66.8,-66.75 h -13.6 c -36.9,0 -66.8,29.91 -66.8,66.75 v 1044.05"
           style="fill:#8cd8d6;fill-opacity:1;fill-rule:nonzero;stroke:none"
           id="path240"
           inkscape:connector-curvature="0" /></g><g
         id="g242"
         transform="scale(1.44628)"><path
           d="m 16147.2,14083.4 c 0,38.3 31,69.4 69.3,69.4 h 14.2 c 38.3,0 69.3,-31.1 69.3,-69.4 v -1083.7 c 0,-38.2 -31,-69.2 -69.3,-69.2 h -14.2 c -38.3,0 -69.3,31 -69.3,69.2 v 1083.7"
           style="fill:#8cd8d6;fill-opacity:1;fill-rule:nonzero;stroke:none"
           id="path244"
           inkscape:connector-curvature="0" /></g><g
         id="g246"
         transform="scale(1.56962)"><path
           d="m 16300,15159.7 c 0,35.3 -28.6,63.9 -63.9,63.9 h -13.1 c -35.2,0 -63.8,-28.6 -63.8,-63.9 v -998.5 c 0,-35.3 28.6,-63.8 63.8,-63.8 h 13.1 c 35.3,0 63.9,28.5 63.9,63.8 v 998.5"
           style="fill:#8cd8d6;fill-opacity:1;fill-rule:nonzero;stroke:none"
           id="path248"
           inkscape:connector-curvature="0" /></g><g
         id="g250"
         transform="scale(1.61488)"><path
           d="m 15015.4,16237.9 c 0,34.3 27.8,62.1 62.2,62.1 h 12.6 c 34.3,0 62.1,-27.8 62.1,-62.1 v -970.5 c 0,-34.3 -27.8,-62.1 -62.1,-62.1 h -12.6 c -34.4,0 -62.2,27.8 -62.2,62.1 v 970.5"
           style="fill:#8cd8d6;fill-opacity:1;fill-rule:nonzero;stroke:none"
           id="path252"
           inkscape:connector-curvature="0" /></g><g
         id="g254"
         transform="scale(1.69582)"><path
           d="m 13771.2,16240.9 c 0,32.6 26.5,59.1 59.1,59.1 h 12.1 c 32.6,0 59.1,-26.5 59.1,-59.1 v -924.2 c 0,-32.7 -26.5,-59.1 -59.1,-59.1 h -12.1 c -32.6,0 -59.1,26.4 -59.1,59.1 v 924.2"
           style="fill:#8cd8d6;fill-opacity:1;fill-rule:nonzero;stroke:none"
           id="path256"
           inkscape:connector-curvature="0" /></g><g
         id="g258"
         transform="scale(1.37783)"><path
           d="m 16139.7,11785.1 c 0,40.2 32.6,72.7 72.7,72.7 h 14.9 c 40.2,0 72.7,-32.5 72.7,-72.7 v -1137.5 c 0,-40.2 -32.5,-72.7 -72.7,-72.7 h -14.9 c -40.1,0 -72.7,32.5 -72.7,72.7 v 1137.5"
           style="fill:#8cd8d6;fill-opacity:1;fill-rule:nonzero;stroke:none"
           id="path260"
           inkscape:connector-curvature="0" /></g><g
         id="g262"
         transform="scale(1.32295)"><path
           d="m 16132.9,14350.6 c 0,41.8 34,75.8 75.8,75.8 h 15.5 c 41.9,0 75.8,-34 75.8,-75.8 v -1184.7 c 0,-41.8 -33.9,-75.8 -75.8,-75.8 h -15.5 c -41.8,0 -75.8,34 -75.8,75.8 v 1184.7"
           style="fill:#8cd8d6;fill-opacity:1;fill-rule:nonzero;stroke:none"
           id="path264"
           inkscape:connector-curvature="0" /></g><g
         id="g266"
         transform="scale(1.39139)"><path
           d="m 16300,14440.6 c 0,39.9 -32.3,72.1 -72,72.1 h -14.7 c -39.9,0 -72.1,-32.2 -72.1,-72.1 v -1126.4 c 0,-39.7 32.2,-72 72.1,-72 h 14.7 c 39.7,0 72,32.3 72,72 v 1126.4"
           style="fill:#8cd8d6;fill-opacity:1;fill-rule:nonzero;stroke:none"
           id="path268"
           inkscape:connector-curvature="0" /></g><g
         id="g270"
         transform="scale(1.44628)"><path
           d="m 16300,15495.9 c 0,38.3 -31,69.4 -69.3,69.4 h -14.2 c -38.3,0 -69.3,-31.1 -69.3,-69.4 v -1083.6 c 0,-38.3 31,-69.3 69.3,-69.3 h 14.2 c 38.3,0 69.3,31 69.3,69.3 v 1083.6"
           style="fill:#8cd8d6;fill-opacity:1;fill-rule:nonzero;stroke:none"
           id="path272"
           inkscape:connector-curvature="0" /></g><g
         id="g274"
         transform="scale(1.53)"><path
           d="m 14534.5,16234.4 c 0,36.3 29.4,65.6 65.5,65.6 h 13.4 c 36.2,0 65.5,-29.3 65.5,-65.6 v -1024.3 c 0,-36.2 -29.3,-65.5 -65.5,-65.5 h -13.4 c -36.1,0 -65.5,29.3 -65.5,65.5 v 1024.3"
           style="fill:#8cd8d6;fill-opacity:1;fill-rule:nonzero;stroke:none"
           id="path276"
           inkscape:connector-curvature="0" /></g><g
         id="g278"
         transform="scale(1.61094)"><path
           d="m 13248.8,16237.7 c 0,34.4 27.9,62.3 62.2,62.3 h 12.7 c 34.4,0 62.3,-27.9 62.3,-62.3 v -972.9 c 0,-34.3 -27.9,-62.2 -62.3,-62.2 h -12.7 c -34.3,0 -62.2,27.9 -62.2,62.2 v 972.9"
           style="fill:#8cd8d6;fill-opacity:1;fill-rule:nonzero;stroke:none"
           id="path280"
           inkscape:connector-curvature="0" /></g><g
         id="g282"
         transform="scale(1.2545)"><path
           d="m 16123.8,15889.2 c 0,44.2 35.8,80 80,80 h 16.3 c 44.1,0 79.9,-35.8 79.9,-80 V 14640 c 0,-44.2 -35.8,-80 -79.9,-80 h -16.3 c -44.2,0 -80,35.8 -80,80 v 1249.2"
           style="fill:#8cd8d6;fill-opacity:1;fill-rule:nonzero;stroke:none"
           id="path284"
           inkscape:connector-curvature="0" /></g><g
         id="g286"
         transform="scale(1.2545)"><path
           d="m 16123.8,13180.5 c 0,44.1 35.8,79.9 80,79.9 h 16.3 c 44.1,0 79.9,-35.8 79.9,-79.9 v -1249.3 c 0,-44.2 -35.8,-80 -79.9,-80 h -16.3 c -44.2,0 -80,35.8 -80,80 v 1249.3"
           style="fill:#8cd8d6;fill-opacity:1;fill-rule:nonzero;stroke:none"
           id="path288"
           inkscape:connector-curvature="0" /></g><g
         id="g290"
         transform="scale(1.25576)"><path
           d="m 15395.2,16220.1 c 0,44.1 35.8,79.9 79.9,79.9 h 16.3 c 44,0 79.8,-35.8 79.8,-79.9 V 14972 c 0,-44 -35.8,-79.8 -79.8,-79.8 h -16.3 c -44.1,0 -79.9,35.8 -79.9,79.8 v 1248.1"
           style="fill:#8cd8d6;fill-opacity:1;fill-rule:nonzero;stroke:none"
           id="path292"
           inkscape:connector-curvature="0" /></g><g
         id="g294"
         transform="scale(1.44628)"><path
           d="m 16300,7659.64 c 0,38.31 -31,69.35 -69.3,69.35 h -14.2 c -38.3,0 -69.3,-31.04 -69.3,-69.35 V 6575.97 c 0,-38.24 31,-69.29 69.3,-69.29 h 14.2 c 38.3,0 69.3,31.05 69.3,69.29 v 1083.67"
           style="fill:#8cd8d6;fill-opacity:1;fill-rule:nonzero;stroke:none"
           id="path296"
           inkscape:connector-curvature="0" /></g><g
         id="g298"
         transform="scale(1.67939)"><path
           d="m 16300,9845.82 c 0,32.93 -26.7,59.67 -59.7,59.67 h -12.2 c -33,0 -59.7,-26.74 -59.7,-59.67 v -933.25 c 0,-32.99 26.7,-59.67 59.7,-59.67 h 12.2 c 33,0 59.7,26.68 59.7,59.67 v 933.25"
           style="fill:#8cd8d6;fill-opacity:1;fill-rule:nonzero;stroke:none"
           id="path300"
           inkscape:connector-curvature="0" /></g><g
         id="g302"
         transform="scale(1.61488)"><path
           d="m 12525.7,16237.9 c 0,34.3 27.8,62.1 62.1,62.1 h 12.7 c 34.2,0 62,-27.8 62,-62.1 v -970.5 c 0,-34.3 -27.8,-62.1 -62,-62.1 h -12.7 c -34.3,0 -62.1,27.8 -62.1,62.1 v 970.5"
           style="fill:#8cd8d6;fill-opacity:1;fill-rule:nonzero;stroke:none"
           id="path304"
           inkscape:connector-curvature="0" /></g><g
         id="g306"
         transform="scale(1.69582)"><path
           d="m 11400.2,16240.9 c 0,32.6 26.5,59.1 59.2,59.1 h 12.1 c 32.6,0 59.1,-26.5 59.1,-59.1 v -924.2 c 0,-32.7 -26.5,-59.1 -59.1,-59.1 h -12.1 c -32.7,0 -59.2,26.4 -59.2,59.1 v 924.2"
           style="fill:#8cd8d6;fill-opacity:1;fill-rule:nonzero;stroke:none"
           id="path308"
           inkscape:connector-curvature="0" /></g><g
         id="g310"
         transform="scale(1.58902)"><path
           d="m 15994.4,12569.1 c 39.8,36.2 74.3,82.6 101.5,136.4 h 66.5 c -44.6,-57.4 -102,-104.3 -168,-136.4 z m -582.2,136.4 h 66.5 c 27.1,-53.8 61.6,-100.2 101.4,-136.4 -65.9,32.1 -123.3,79 -167.9,136.4 z m 167.8,717.7 c -47.1,-43 -86.8,-100.1 -115.7,-167 h -74 c 46.8,71.3 112.4,129.4 189.7,167 z m 604.3,-167 h -74 c -28.9,66.9 -68.6,124.1 -115.8,167.1 77.3,-37.7 142.9,-95.8 189.8,-167.1 z m -23,-294.3 h 99.6 c -5.8,-79.8 -31.4,-154.3 -71.8,-218.4 h -75.8 c 27.2,65.2 44.2,139.4 48,218.4 z m -214.9,-218.4 c 13.1,67.9 20.6,143.3 22.3,218.4 h 154.6 c -4.1,-79.8 -22.2,-154.3 -51,-218.4 z m -75.1,-207.1 c 28.5,39.9 51,99.3 67.2,169.1 h 114.9 c -45.2,-81.8 -108.8,-142.4 -182.1,-169.1 z m -196.1,169.1 h 224.2 c -28.3,-114.9 -71.6,-184 -112.2,-184 -40.4,0 -83.7,69.1 -112,184 z m -39.1,0 c 16.2,-69.8 38.7,-129.2 67.1,-169.1 -73.2,26.7 -136.9,87.3 -182,169.1 z m -184.7,256.4 h 154.5 c 1.7,-75.1 9.2,-150.5 22.2,-218.4 h -125.8 c -28.8,64.1 -46.9,138.6 -50.9,218.4 z m -38.1,0 c 3.8,-79 20.8,-153.2 47.9,-218.4 h -75.6 c -40.5,64.1 -66.1,138.6 -71.8,218.4 z m -0.8,38 h -99.9 c 0.6,78.8 20.5,153 55.1,218.3 h 81.7 c -23.3,-66.2 -36.6,-140.2 -36.9,-218.3 z m 210.2,218.3 c -11.2,-69.1 -17,-144.4 -17.2,-218.3 h -155 c 0.4,78.8 14.5,153 39.1,218.3 z m 80.5,237.7 c -32.6,-45.5 -57.2,-116.8 -73.7,-199.7 h -123.9 c 45.4,97.3 115.4,169.8 197.6,199.7 z m 203.2,-199.7 h -238.2 c 27.8,133.2 75.1,214.7 119,214.7 44.1,0 91.3,-81.5 119.2,-214.7 z m 38.7,0 c -16.5,82.9 -41.2,154.2 -73.7,199.7 82.1,-29.9 152.2,-102.4 197.6,-199.7 z m -14.4,-294.3 c -1.8,-81.9 -10.2,-155.7 -22.8,-218.4 h -241.2 c -12.6,62.7 -21,136.5 -22.8,218.4 z m -287.2,38 c 0.2,80.8 6.7,154.5 17.5,218.3 h 252.6 c 10.8,-63.8 17.3,-137.5 17.5,-218.3 z m 480.7,0 h -155 c -0.3,73.9 -6.1,149.2 -17.3,218.3 h 133.1 c 24.6,-65.3 38.7,-139.5 39.2,-218.3 z m 137.9,0 h -100 c -0.4,78.1 -13.6,152.1 -37,218.3 h 81.8 c 34.6,-65.3 54.6,-139.5 55.2,-218.3 z m -49,-289 c 54.9,81.6 86.9,179.8 86.9,285.3 0,282.8 -230,512.7 -512.8,512.7 -282.6,0 -512.6,-229.9 -512.6,-512.7 0,-105.5 32.1,-203.7 86.9,-285.3 l 3.6,-5.4 c 92.7,-134 247.3,-222 422.1,-222 175,0 329.7,88 422.2,222 l 3.7,5.4"
           style="fill:#ff3d00;fill-opacity:1;fill-rule:nonzero;stroke:none"
           id="path312"
           inkscape:connector-curvature="0" /></g><g
         id="g314"
         transform="scale(1.72161)"><path
           d="m 16057,15151.7 c -16.9,-42.4 -41.1,-78 -72.6,-107.2 -31.5,-29 -69,-52.4 -112.6,-69.9 -43.7,-17.6 -92.1,-29.4 -145.4,-35.5 v -154.4 h -57.2 -91.8 v 149 c -50.9,2.5 -105.1,10 -162.6,22.7 -57.5,12.8 -109.3,33.6 -155.3,62.7 l 76.3,225.3 c 29.1,-12.2 58.1,-21.9 87.2,-29.1 29.1,-7.3 55.7,-13 80,-17.3 24.2,-4.2 45.7,-7 64.4,-8.1 18.8,-1.2 33,-1.9 42.7,-1.9 22.6,0 42.4,1.5 59.1,4.3 23.7,4.3 41.5,11.3 53.6,21.2 20.6,17 30.9,44.8 30.9,83.6 0,18.1 -2.5,33.3 -7.3,45.4 -4.8,12.1 -12.7,22.7 -23.6,31.8 -10.9,9.1 -25.4,17.5 -43.6,25.4 l -10,4.2 c -16.4,6.8 -36.1,14.2 -59.1,22.2 -55.7,19.3 -105.3,38.4 -149,57.2 -43.5,18.7 -80.5,42.1 -110.7,70 -30.4,27.8 -53.6,62 -70,102.6 -16.3,40.5 -24.5,91.7 -24.5,153.5 0,54.5 8.2,101.5 24.5,140.8 16.4,39.4 39.1,72.7 68.1,99.9 29.1,27.3 63.3,48.8 102.6,64.5 39.4,15.8 81.5,26.7 126.3,32.8 v 152.6 h 91.8 57.2 v -147.2 c 46,-2.4 96.3,-10.1 150.8,-22.8 54.5,-12.7 103,-32.4 145.3,-59 l -65.3,-218 c -24.3,9.7 -49.4,17.6 -75.5,23.6 -26,6 -50.2,10.9 -72.6,14.5 -22.5,3.7 -42.7,6.4 -60.9,8.2 -18.1,1.8 -31.5,2.8 -40,2.8 -14.3,0 -27.3,-1 -39,-2.4 -23.9,-3.3 -42.4,-9.7 -55.4,-19.4 -19.4,-14.5 -29.1,-38.8 -29.1,-72.7 0,-26.6 10,-47.6 30,-62.7 13.3,-10 31.4,-19.7 54.5,-28.9 11.7,-4.8 24.7,-9.3 39,-13.8 75.1,-24.2 136.9,-48.5 185.4,-72.6 48.4,-24.2 86.6,-51.5 114.4,-81.8 27.9,-30.3 47.3,-65.4 58.1,-105.4 11,-40 16.4,-87.2 16.4,-141.7 0,-56.9 -8.5,-106.6 -25.5,-149"
           style="fill:#ff3d00;fill-opacity:1;fill-rule:nonzero;stroke:none"
           id="path316"
           inkscape:connector-curvature="0" /></g><g
         id="g318"
         transform="scale(1.32029)"><path
           d="m 12154.5,14463.8 c 244.6,12.4 466.8,109.8 637.5,263.4 -0.7,63.1 -1.8,116.8 -1.8,132.1 0,224.4 -158.6,422.5 -390.7,436.9 -10.7,0.8 -21.4,0.9 -32,0.8 43.7,27.8 99.5,113.2 147.9,113.2 21.2,0 116.8,-14.8 131.9,0 26.3,25.6 1.2,184.6 -1,216.5 -7,98.5 -19.1,197.5 -47.1,292.4 -66.3,224.8 -256.1,380.9 -494.9,380.9 -221.7,0 -411.8,-137.9 -483.7,-345.9 -58.2,-168.4 -71.2,-361.7 -59.6,-538.4 0.9,-13 95.8,-5.5 108.9,-5.5 74.7,0 108,-73 171.3,-113.2 -186.3,2 -356.5,-124.4 -407.3,-304.2 -23.1,-82.1 -25.2,-174.3 -22.5,-265.9 170.6,-153.4 392.6,-250.7 637,-263.1 35.4,0 70.8,0 106.1,0"
           style="fill:#ff3d00;fill-opacity:1;fill-rule:nonzero;stroke:none"
           id="path320"
           inkscape:connector-curvature="0" /></g><g
         id="g322"
         transform="scale(1.42997)"><path
           d="m 14753.9,15417.1 c 375.6,238.5 214.4,882.9 -242.8,882.9 -457.2,0 -618.5,-644.4 -242.9,-882.9 -120.5,1.4 -236.5,-55 -310.2,-150.5 -84.1,-108.9 -83.6,-243.3 -81.1,-374.6 168.8,-151.6 391.9,-243.9 636.7,-243.9 245.5,0 469.4,92.9 638.5,245.4 2.3,110.3 -4.1,221.9 -48.4,310.3 -65.7,130.8 -203.6,214.9 -349.8,213.3"
           style="fill:#ff3d00;fill-opacity:1;fill-rule:nonzero;stroke:none"
           id="path324"
           inkscape:connector-curvature="0" /></g><g
         id="g326"
         transform="scale(1.51461)"><path
           d="m 16215.8,15315 h -896.2 v 496.6 l 414,-327.6 c 7.6,-6.1 16.9,-9.1 26.1,-9.1 9.1,0 18.2,3 25.8,8.8 l 430.3,333.3 z m -94.1,535.6 -361.8,-280.2 -350,277.1 z m 150.5,75.1 c -7.3,6.1 -16.7,9.6 -26.7,9.6 h -0.2 -1.8 c -1.4,0 -2.8,0.2 -4.2,0.2 h -943.2 c -33.5,0 -60.7,-27.2 -60.7,-60.7 v -583.3 c 0,-33.5 27.2,-60.8 60.7,-60.8 h 943.2 c 33.5,0 60.7,27.3 60.7,60.8 v 583.3 c 0,21.3 -11.1,40.1 -27.8,50.9"
           style="fill:#ff3d00;fill-opacity:1;fill-rule:nonzero;stroke:none"
           id="path328"
           inkscape:connector-curvature="0" /></g><g
         id="g330"
         transform="scale(1.55805)"><path
           d="m 15852.4,9746.61 c -123.5,0 -223.8,100.19 -223.8,223.74 0,123.65 100.3,223.85 223.8,223.85 123.7,0 223.9,-100.2 223.9,-223.85 0,-123.55 -100.2,-223.74 -223.9,-223.74 z m 447.6,223.74 c 0,247.15 -200.3,447.55 -447.6,447.55 -247.2,0 -447.6,-200.4 -447.6,-447.55 0,-81.64 22.2,-157.89 60.4,-223.8 h -0.5 l 387.7,-783.29 387.8,783.29 h -0.5 c 38.2,65.91 60.3,142.16 60.3,223.8"
           style="fill:#ff3d00;fill-opacity:1;fill-rule:nonzero;stroke:none"
           id="path332"
           inkscape:connector-curvature="0" /></g><g
         id="g334"
         transform="scale(1.39727)"><path
           d="m 7697.87,15907.7 c -54.18,-54.2 -141.92,-54.3 -196.1,-0.1 -54.18,54.2 -54.18,142 0,196.2 54.18,54.1 141.92,54.1 196.1,0 54.17,-54.2 54.17,-142 0,-196.1 z m 1029.94,-441.5 c -98.05,98.2 -833.77,833.8 -833.77,833.8 H 7305.6 v -588.5 l 833.77,-833.7 c 0,0 98.05,-98.1 196.1,0 98.12,98 392.34,392.3 392.34,392.3 0,0 98.04,98 0,196.1"
           style="fill:#ff3d00;fill-opacity:1;fill-rule:nonzero;stroke:none"
           id="path336"
           inkscape:connector-curvature="0" /></g><g
         id="g338"
         transform="scale(1.56956)"><path
           d="m 8762.78,14964.7 h -747.72 v 1068.2 h 747.72 z M 8388.86,14751 c -44.22,0 -80.09,35.8 -80.09,80.1 0,44.3 35.87,80.2 80.09,80.2 44.34,0 80.15,-35.9 80.15,-80.2 0,-44.3 -35.81,-80.1 -80.15,-80.1 z m -80.03,1442.2 h 160.18 c 14.78,0 26.69,-12 26.69,-26.7 0,-14.8 -11.91,-26.7 -26.69,-26.7 h -160.18 c -14.78,0 -26.69,11.9 -26.69,26.7 0,14.7 11.91,26.7 26.69,26.7 z m 373.8,106.8 h -587.49 c -73.46,0 -133.54,-60.1 -133.54,-133.5 v -1335.4 c 0,-73.4 60.08,-133.5 133.54,-133.5 h 587.49 c 73.46,0 133.54,60.1 133.54,133.5 v 1335.4 c 0,73.4 -60.08,133.5 -133.54,133.5"
           style="fill:#ff3d00;fill-opacity:1;fill-rule:nonzero;stroke:none"
           id="path340"
           inkscape:connector-curvature="0" /></g></g></g></svg>