<svg id="Layer_1" data-name="Layer 1" xmlns="http://www.w3.org/2000/svg" viewBox="0 0 512 512"><defs><style>.cls-1{fill:#ff3501;}.cls-2{fill:#fff;}</style></defs><title>reddit (1)</title><circle class="cls-1" cx="256" cy="256" r="256"/><path class="cls-1" d="M256,0a257.24,257.24,0,0,0-33.39,2.17C348.22,18.53,445.22,125.93,445.22,256s-97,237.47-222.61,253.83A257.24,257.24,0,0,0,256,512c141.39,0,256-114.62,256-256S397.39,0,256,0Z"/><path class="cls-1" d="M322.78,123a34,34,0,1,1,34-33.95A34,34,0,0,1,322.78,123Z"/><path class="cls-2" d="M256,456.9C160,456.9,81.81,391.74,81.81,311.65S160,166.4,256,166.4s174.19,65.16,174.19,145.25S352.05,456.9,256,456.9Z"/><path class="cls-2" d="M424.43,278.48c-7.86-27.65-25.33-52.61-50.5-72.17l-8.19-6.37,7.54-7.13A56.22,56.22,0,0,1,468,233.74,56.73,56.73,0,0,1,437,284l-9.62,4.83Z"/><path class="cls-2" d="M75,284a56.2,56.2,0,0,1,25.17-106.46,55.8,55.8,0,0,1,38.55,15.28l7.54,7.13-8.19,6.36c-25.17,19.57-42.64,44.52-50.5,72.17l-2.95,10.36Z"/><path class="cls-1" d="M178.09,312.21A33.95,33.95,0,1,1,212,278.26,34,34,0,0,1,178.09,312.21Z"/><path class="cls-1" d="M333.91,312.21a33.95,33.95,0,1,1,33.95-33.95A34,34,0,0,1,333.91,312.21Z"/><path class="cls-1" d="M342.79,370.79c-22.71,18.92-53.53,29.35-86.79,29.35s-64.08-10.43-86.79-29.35a8.35,8.35,0,1,0-10.69,12.82C184.23,405,218.85,416.83,256,416.83s71.77-11.79,97.48-33.22a8.35,8.35,0,1,0-10.69-12.82Z"/><path class="cls-2" d="M264.35,178.09v-71.9l18.2-6.07a41.71,41.71,0,1,0-1.05-17.24l-28.14,9.38a8.34,8.34,0,0,0-5.71,7.92v77.91ZM322.78,64a25,25,0,1,1-25,25A25.07,25.07,0,0,1,322.78,64Z"/></svg>