<?xml version="1.0" encoding="UTF-8" standalone="no"?>
<!-- Generator: Adobe Illustrator 19.0.0, SVG Export Plug-In . SVG Version: 6.00 Build 0)  -->

<svg
   xmlns:dc="http://purl.org/dc/elements/1.1/"
   xmlns:cc="http://creativecommons.org/ns#"
   xmlns:rdf="http://www.w3.org/1999/02/22-rdf-syntax-ns#"
   xmlns:svg="http://www.w3.org/2000/svg"
   xmlns="http://www.w3.org/2000/svg"
   xmlns:sodipodi="http://sodipodi.sourceforge.net/DTD/sodipodi-0.dtd"
   xmlns:inkscape="http://www.inkscape.org/namespaces/inkscape"
   version="1.1"
   id="Capa_1"
   x="0px"
   y="0px"
   viewBox="0 0 464 464"
   style="enable-background:new 0 0 464 464;"
   xml:space="preserve"
   sodipodi:docname="report.svg"
   inkscape:version="0.92.3 (2405546, 2018-03-11)"><metadata
   id="metadata1141"><rdf:RDF><cc:Work
       rdf:about=""><dc:format>image/svg+xml</dc:format><dc:type
         rdf:resource="http://purl.org/dc/dcmitype/StillImage" /></cc:Work></rdf:RDF></metadata><defs
   id="defs1139" /><sodipodi:namedview
   pagecolor="#ffffff"
   bordercolor="#666666"
   borderopacity="1"
   objecttolerance="10"
   gridtolerance="10"
   guidetolerance="10"
   inkscape:pageopacity="0"
   inkscape:pageshadow="2"
   inkscape:window-width="1366"
   inkscape:window-height="704"
   id="namedview1137"
   showgrid="false"
   inkscape:zoom="0.50862069"
   inkscape:cx="232"
   inkscape:cy="232"
   inkscape:window-x="0"
   inkscape:window-y="27"
   inkscape:window-maximized="1"
   inkscape:current-layer="Capa_1" />
<path
   style="fill:#E6E6E6;"
   d="M288,432H0V80l48-48h240V432z"
   id="path1032" />
<path
   style="fill:#00b8d4;fill-opacity:1"
   d="M48,32v48H0L48,32z"
   id="path1034" />
<path
   style="fill:#00b8d4;fill-opacity:1"
   d="M184,83.056V64h-16v19.056l-24,12l-24-12V64h-16v19.056L76.424,96.84  c-2.712,1.355-4.425,4.128-4.424,7.16v32H56v16h22.112L104,164.944V184h16v-19.056l24-12l24,12V184h16v-19.056l27.576-13.744  c2.725-1.362,4.441-4.153,4.424-7.2v-32h16V96h-22.112L184,83.056z M88,108.944l24-12l24,12v30.112l-24,12l-24-12V108.944z   M200,139.056l-24,12l-24-12v-30.112l24-12l24,12V139.056z"
   id="path1036" />
<g
   id="g1042"
   style="fill:#00b8d4;fill-opacity:1">
	<path
   style="fill:#00b8d4;fill-opacity:1"
   d="M216,64h16v16h-16V64z"
   id="path1038" />
	<path
   style="fill:#00b8d4;fill-opacity:1"
   d="M56,168h16v16H56V168z"
   id="path1040" />
</g>
<path
   style="fill:#ff3d00;fill-opacity:1"
   d="M448,379.392V432h-32l-22.256-33.376L448,379.392z"
   id="path1044" />
<g
   id="g1050"
   style="fill:#00b8d4;fill-opacity:1">
	<path
   style="fill:#00b8d4;fill-opacity:1"
   d="M352,72c-21.544-0.168-43.031,2.249-64,7.2v65.6c20.969,4.951,42.456,7.368,64,7.2   c61.856,0,112-17.912,112-40S413.856,72,352,72L352,72z"
   id="path1046" />
	<path
   style="fill:#00b8d4;fill-opacity:1"
   d="M352,216c-21.544,0.168-43.031-2.249-64-7.2v64c20.969,4.951,42.456,7.368,64,7.2   c61.856,0,112-17.912,112-40v-64C464,198.088,413.856,216,352,216z"
   id="path1048" />
</g>
<g
   id="g1056">
	<path
   style="fill:#666666;"
   d="M352,152c-21.544,0.168-43.031-2.249-64-7.2v64c20.969,4.951,42.456,7.368,64,7.2   c61.856,0,112-17.912,112-40v-64C464,134.088,413.856,152,352,152z"
   id="path1052" />
	<path
   style="fill:#666666;"
   d="M352,280c-21.544,0.168-43.031-2.249-64-7.2v64c20.969,4.951,42.456,7.368,64,7.2   c61.856,0,112-17.912,112-40v-64C464,262.088,413.856,280,352,280z"
   id="path1054" />
</g>
<g
   id="g1068"
   style="fill:#00b8d4;fill-opacity:1">
	<path
   style="fill:#00b8d4;fill-opacity:1"
   d="M352,344c-21.544,0.168-43.031-2.249-64-7.2v64c20.969,4.951,42.456,7.368,64,7.2   c61.856,0,112-17.912,112-40v-64C464,326.088,413.856,344,352,344z"
   id="path1058" />
	<path
   style="fill:#00b8d4;fill-opacity:1"
   d="M40,344h208v16H40V344z"
   id="path1060" />
	<path
   style="fill:#00b8d4;fill-opacity:1"
   d="M40,376h208v16H40V376z"
   id="path1062" />
	<path
   style="fill:#00b8d4;fill-opacity:1"
   d="M88,312h160v16H88V312z"
   id="path1064" />
	<path
   style="fill:#00b8d4;fill-opacity:1"
   d="M56,312h16v16H56V312z"
   id="path1066" />
</g>
<path
   style="fill:#00b8d4;fill-opacity:1"
   d="M48,216h192v64H48V216z"
   id="path1070" />
<g
   id="g1078"
   style="fill:#ff3d00;fill-opacity:1">
	<path
   style="fill:#ff3d00;fill-opacity:1"
   d="M200,240h16v16h-16V240z"
   id="path1072" />
	<path
   style="fill:#ff3d00;fill-opacity:1"
   d="M168,240h16v16h-16V240z"
   id="path1074" />
	<path
   style="fill:#ff3d00;fill-opacity:1"
   d="M136,240h16v16h-16V240z"
   id="path1076" />
</g>
<g
   id="g1104"
   style="fill:#ff3d00;fill-opacity:1">
	<path
   style="fill:#ff3d00;fill-opacity:1"
   d="M344,240h16v16h-16V240z"
   id="path1080" />
	<path
   style="fill:#ff3d00;fill-opacity:1"
   d="M312,240h16v16h-16V240z"
   id="path1082" />
	<path
   style="fill:#ff3d00;fill-opacity:1"
   d="M376,240h16v16h-16V240z"
   id="path1084" />
	<path
   style="fill:#ff3d00;fill-opacity:1"
   d="M344,176h16v16h-16V176z"
   id="path1086" />
	<path
   style="fill:#ff3d00;fill-opacity:1"
   d="M312,176h16v16h-16V176z"
   id="path1088" />
	<path
   style="fill:#ff3d00;fill-opacity:1"
   d="M376,176h16v16h-16V176z"
   id="path1090" />
	<path
   style="fill:#ff3d00;fill-opacity:1"
   d="M344,304h16v16h-16V304z"
   id="path1092" />
	<path
   style="fill:#ff3d00;fill-opacity:1"
   d="M312,304h16v16h-16V304z"
   id="path1094" />
	<path
   style="fill:#ff3d00;fill-opacity:1"
   d="M376,304h16v16h-16V304z"
   id="path1096" />
	<path
   style="fill:#ff3d00;fill-opacity:1"
   d="M344,368h16v16h-16V368z"
   id="path1098" />
	<path
   style="fill:#ff3d00;fill-opacity:1"
   d="M312,368h16v16h-16V368z"
   id="path1100" />
	<path
   style="fill:#ff3d00;fill-opacity:1"
   d="M376,368h16v16h-16V368z"
   id="path1102" />
</g>
<g
   id="g1106">
</g>
<g
   id="g1108">
</g>
<g
   id="g1110">
</g>
<g
   id="g1112">
</g>
<g
   id="g1114">
</g>
<g
   id="g1116">
</g>
<g
   id="g1118">
</g>
<g
   id="g1120">
</g>
<g
   id="g1122">
</g>
<g
   id="g1124">
</g>
<g
   id="g1126">
</g>
<g
   id="g1128">
</g>
<g
   id="g1130">
</g>
<g
   id="g1132">
</g>
<g
   id="g1134">
</g>
</svg>