<?xml version="1.0" encoding="UTF-8" standalone="no"?>
<svg
   xmlns:dc="http://purl.org/dc/elements/1.1/"
   xmlns:cc="http://creativecommons.org/ns#"
   xmlns:rdf="http://www.w3.org/1999/02/22-rdf-syntax-ns#"
   xmlns:svg="http://www.w3.org/2000/svg"
   xmlns="http://www.w3.org/2000/svg"
   xmlns:sodipodi="http://sodipodi.sourceforge.net/DTD/sodipodi-0.dtd"
   xmlns:inkscape="http://www.inkscape.org/namespaces/inkscape"
   height="464pt"
   viewBox="0 0 464 464"
   width="464pt"
   version="1.1"
   id="svg42"
   sodipodi:docname="server.svg"
   inkscape:version="0.92.3 (2405546, 2018-03-11)">
  <metadata
     id="metadata48">
    <rdf:RDF>
      <cc:Work
         rdf:about="">
        <dc:format>image/svg+xml</dc:format>
        <dc:type
           rdf:resource="http://purl.org/dc/dcmitype/StillImage" />
      </cc:Work>
    </rdf:RDF>
  </metadata>
  <defs
     id="defs46" />
  <sodipodi:namedview
     pagecolor="#ffffff"
     bordercolor="#666666"
     borderopacity="1"
     objecttolerance="10"
     gridtolerance="10"
     guidetolerance="10"
     inkscape:pageopacity="0"
     inkscape:pageshadow="2"
     inkscape:window-width="1366"
     inkscape:window-height="704"
     id="namedview44"
     showgrid="false"
     inkscape:zoom="0.38146552"
     inkscape:cx="309.33333"
     inkscape:cy="309.33333"
     inkscape:window-x="0"
     inkscape:window-y="27"
     inkscape:window-maximized="1"
     inkscape:current-layer="svg42" />
  <path
     d="m20.320312 279.839844c19.371094 5.675781 39.496094 8.375 59.679688 8 20.183594.375 40.308594-2.324219 59.679688-8 12.640624-4.238282 20.320312-9.839844 20.320312-16 0-13.277344-35.839844-24-80-24s-80 10.722656-80 24c0 6.160156 7.679688 11.761718 20.320312 16zm0 0"
     fill="#bebec2"
     id="path2" />
  <path
     d="m124.320312 315.839844c21.519532-4.320313 35.679688-11.679688 35.679688-20v-32c0 6.160156-7.679688 11.761718-20.320312 16-19.371094 5.675781-39.496094 8.375-59.679688 8-20.183594.375-40.308594-2.324219-59.679688-8-12.640624-4.238282-20.320312-9.839844-20.320312-16v32c0 8.320312 14.160156 15.679687 35.679688 20 14.613281 2.730468 29.453124 4.070312 44.320312 4 14.867188.070312 29.707031-1.269532 44.320312-4zm0 0"
     fill="#21409a"
     id="path4"
     style="fill:#00b8d4;fill-opacity:1" />
  <path
     d="m20.320312 351.839844c19.371094 5.675781 39.496094 8.375 59.679688 8 20.183594.375 40.308594-2.324219 59.679688-8 12.640624-4.238282 20.320312-9.839844 20.320312-16 0-8.320313-14.160156-15.679688-35.679688-20-14.613281 2.730468-29.453124 4.070312-44.320312 4-14.867188.070312-29.707031-1.269532-44.320312-4-21.519532 4.320312-35.679688 11.679687-35.679688 20 0 6.160156 7.679688 11.761718 20.320312 16zm0 0"
     fill="#bebec2"
     id="path6" />
  <path
     d="m124.320312 387.839844c21.519532-4.320313 35.679688-11.679688 35.679688-20v-32c0 6.160156-7.679688 11.761718-20.320312 16-19.371094 5.675781-39.496094 8.375-59.679688 8-20.183594.375-40.308594-2.324219-59.679688-8-12.640624-4.238282-20.320312-9.839844-20.320312-16v32c0 8.320312 14.160156 15.679687 35.679688 20 14.613281 2.730468 29.453124 4.070312 44.320312 4 14.867188.070312 29.707031-1.269532 44.320312-4zm0 0"
     fill="#21409a"
     id="path8"
     style="fill:#00b8d4;fill-opacity:1" />
  <path
     d="m20.320312 423.839844c19.371094 5.675781 39.496094 8.375 59.679688 8 20.183594.375 40.308594-2.324219 59.679688-8 12.640624-4.238282 20.320312-9.839844 20.320312-16 0-8.320313-14.160156-15.679688-35.679688-20-14.613281 2.730468-29.453124 4.070312-44.320312 4-14.867188.070312-29.707031-1.269532-44.320312-4-21.519532 4.320312-35.679688 11.679687-35.679688 20 0 6.160156 7.679688 11.761718 20.320312 16zm0 0"
     fill="#bebec2"
     id="path10" />
  <path
     d="m80 463.839844c44.160156 0 80-10.71875 80-24v-32c0 6.160156-7.679688 11.761718-20.320312 16-19.371094 5.675781-39.496094 8.375-59.679688 8-20.183594.375-40.308594-2.324219-59.679688-8-12.640624-4.238282-20.320312-9.839844-20.320312-16v32c0 13.28125 35.839844 24 80 24zm0 0"
     fill="#21409a"
     id="path12"
     style="fill:#00b8d4;fill-opacity:1" />
  <path
     d="m80 151.839844c0 30.929687 25.070312 56 56 56h176c35.347656 0 64-28.652344 64-64 0-35.34375-28.652344-64-64-64-3.429688-.015625-6.855469.25-10.238281.800781 6.308593-23.441406-1.183594-48.433594-19.347657-64.535156-18.167968-16.10156275-43.878906-20.539063-66.390624-11.460938-22.515626 9.082031-37.953126 30.117188-39.863282 54.316407-6.027344-7.078126-14.863281-11.144532-24.160156-11.121094-11.667969 0-22.410156 6.347656-28.039062 16.570312-5.625 10.21875-5.242188 22.695313 1 32.550782-26.164063 5.21875-44.992188 28.203124-44.960938 54.878906zm0 0"
     fill="#00aeef"
     id="path14"
     style="fill:#00b8d4;fill-opacity:1" />
  <path
     d="m304 271.839844h160v64h-160zm0 0"
     fill="#c6c5ca"
     id="path16" />
  <path
     d="m336 311.839844c4.417969 0 8-3.582032 8-8 0-4.417969-3.582031-8-8-8s-8 3.582031-8 8c0 4.417968 3.582031 8 8 8zm0 0"
     fill="#00aeef"
     id="path18" />
  <path
     d="m304 335.839844h160v64h-160zm0 0"
     fill="#acabb1"
     id="path20" />
  <path
     d="m336 375.839844c4.417969 0 8-3.582032 8-8 0-4.417969-3.582031-8-8-8s-8 3.582031-8 8c0 4.417968 3.582031 8 8 8zm0 0"
     fill="#00aeef"
     id="path22" />
  <path
     d="m304 399.839844h160v64h-160zm0 0"
     fill="#898890"
     id="path24" />
  <path
     d="m336 439.839844c4.417969 0 8-3.582032 8-8 0-4.417969-3.582031-8-8-8s-8 3.582031-8 8c0 4.417968 3.582031 8 8 8zm0 0"
     fill="#00aeef"
     id="path26" />
  <g
     fill="#f1f2f2"
     id="g34"
     style="fill:#fb3d00;fill-opacity:1">
    <path
       d="m440 295.839844h-90.222656c-3.621094-6.269532-11.003906-9.328125-18-7.453125-6.992188 1.875-11.859375 8.210937-11.859375 15.453125 0 7.242187 4.867187 13.582031 11.859375 15.457031 6.996094 1.875 14.378906-1.183594 18-7.457031h90.222656c4.417969 0 8-3.582032 8-8 0-4.417969-3.582031-8-8-8zm0 0"
       id="path28"
       style="fill:#fb3d00;fill-opacity:1" />
    <path
       d="m440 359.839844h-90.222656c-3.621094-6.269532-11.003906-9.328125-18-7.453125-6.992188 1.875-11.859375 8.210937-11.859375 15.453125 0 7.242187 4.867187 13.582031 11.859375 15.457031 6.996094 1.875 14.378906-1.183594 18-7.457031h90.222656c4.417969 0 8-3.582032 8-8 0-4.417969-3.582031-8-8-8zm0 0"
       id="path30"
       style="fill:#fb3d00;fill-opacity:1" />
    <path
       d="m440 423.839844h-90.222656c-3.621094-6.269532-11.003906-9.328125-18-7.453125-6.992188 1.875-11.859375 8.210937-11.859375 15.453125 0 7.242187 4.867187 13.582031 11.859375 15.457031 6.996094 1.875 14.378906-1.183594 18-7.457031h90.222656c4.417969 0 8-3.582032 8-8 0-4.417969-3.582031-8-8-8zm0 0"
       id="path32"
       style="fill:#fb3d00;fill-opacity:1" />
  </g>
  <path
     d="m24 223.839844h-16v-144h80v16h-64zm0 0"
     fill="#2b3990"
     id="path36"
     style="fill:#fb3d00;fill-opacity:1" />
  <path
     d="m448 247.839844h-16v-152h-48v-16h64zm0 0"
     fill="#2b3990"
     id="path38"
     style="fill:#fb3d00;fill-opacity:1" />
  <path
     d="m184 415.839844h96v16h-96zm0 0"
     fill="#2b3990"
     id="path40"
     style="fill:#fb3d00;fill-opacity:1" />
</svg>
