<?xml version="1.0" encoding="UTF-8" standalone="no"?>
<!-- Generator: Adobe Illustrator 19.0.0, SVG Export Plug-In . SVG Version: 6.00 Build 0)  -->

<svg
   xmlns:dc="http://purl.org/dc/elements/1.1/"
   xmlns:cc="http://creativecommons.org/ns#"
   xmlns:rdf="http://www.w3.org/1999/02/22-rdf-syntax-ns#"
   xmlns:svg="http://www.w3.org/2000/svg"
   xmlns="http://www.w3.org/2000/svg"
   xmlns:sodipodi="http://sodipodi.sourceforge.net/DTD/sodipodi-0.dtd"
   xmlns:inkscape="http://www.inkscape.org/namespaces/inkscape"
   version="1.1"
   id="Layer_1"
   x="0px"
   y="0px"
   viewBox="0 0 397.529 397.529"
   style="enable-background:new 0 0 397.529 397.529;"
   xml:space="preserve"
   sodipodi:docname="analytics.svg"
   inkscape:version="0.92.3 (2405546, 2018-03-11)"><metadata
   id="metadata1625"><rdf:RDF><cc:Work
       rdf:about=""><dc:format>image/svg+xml</dc:format><dc:type
         rdf:resource="http://purl.org/dc/dcmitype/StillImage" /></cc:Work></rdf:RDF></metadata><defs
   id="defs1623" /><sodipodi:namedview
   pagecolor="#ffffff"
   bordercolor="#666666"
   borderopacity="1"
   objecttolerance="10"
   gridtolerance="10"
   guidetolerance="10"
   inkscape:pageopacity="0"
   inkscape:pageshadow="2"
   inkscape:window-width="1366"
   inkscape:window-height="704"
   id="namedview1621"
   showgrid="false"
   inkscape:zoom="1.2904719"
   inkscape:cx="198.7645"
   inkscape:cy="198.7645"
   inkscape:window-x="0"
   inkscape:window-y="27"
   inkscape:window-maximized="1"
   inkscape:current-layer="Layer_1" />
<circle
   style="fill:#00b8d4;fill-opacity:1"
   cx="178.462"
   cy="198.764"
   r="178.462"
   id="circle1492" />
<path
   style="fill:#00b8d4;fill-opacity:1"
   d="M356.933,198.764c0,98.56-79.899,178.462-178.462,178.462c-36.529,0-70.496-10.978-98.779-29.858  c-1.206-0.766-2.39-1.575-3.547-2.412c-2.486-1.721-4.923-3.52-7.308-5.388c-15.732-12.258-29.342-27.077-40.197-43.889h47.505  V128.02c0-14.252,11.572-25.822,25.846-25.822h77.514V83.884c0-14.277,11.572-25.846,25.846-25.846h82.855  c25.895,20.185,46.058,47.385,57.649,78.718C353.019,156.081,356.933,176.955,356.933,198.764z"
   id="path1494" />
<path
   style="fill:#D9D8D7;"
   d="M371.692,58.041c-14.265,0-25.836,11.562-25.836,25.836v19.175h51.673V83.877  C397.529,69.602,385.957,58.041,371.692,58.041z"
   id="path1496" />
<path
   style="fill:#F2F2F2;"
   d="M205.346,58.041c-14.27,0-25.841,11.562-25.841,25.836v107.067h140.51  c14.27,0,25.841-11.564,25.841-25.834V83.877c0-14.274,11.572-25.836,25.836-25.836H205.346z"
   id="path1498" />
<path
   style="fill:#fb3d00;fill-opacity:1"
   d="M228.236,104.985l-18.836,23.266c-12.852-10.407-14.831-29.258-4.428-42.105  c5.846-7.222,13.977-11.097,23.264-11.097L228.236,104.985L228.236,104.985z"
   id="path1500" />
<path
   style="fill:#D9D8D7;"
   d="M228.236,104.985l-2.612,29.824c-6.174-0.542-11.409-2.654-16.226-6.558L228.236,104.985z"
   id="path1502" />
<path
   style="fill:#21D8DE;"
   d="M228.236,104.985l26.678-13.59c7.505,14.73,1.649,32.761-13.086,40.263  c-5.216,2.656-10.366,3.658-16.202,3.148L228.236,104.985z"
   id="path1504" />
<path
   style="fill:#3E4959;"
   d="M228.236,104.985V75.05c11.707,0,21.361,5.915,26.678,16.347L228.236,104.985z"
   id="path1506" />
<g
   id="g1524">
	<rect
   x="296.517"
   y="78.174"
   style="fill:#D9D8D7;"
   width="19.34"
   height="4.118"
   id="rect1508" />
	<rect
   x="318.942"
   y="78.174"
   style="fill:#D9D8D7;"
   width="8.121"
   height="4.118"
   id="rect1510" />
	<rect
   x="296.517"
   y="111.183"
   style="fill:#D9D8D7;"
   width="30.528"
   height="4.121"
   id="rect1512" />
	<rect
   x="322.24"
   y="127.7"
   style="fill:#D9D8D7;"
   width="4.822"
   height="4.116"
   id="rect1514" />
	<rect
   x="296.517"
   y="127.7"
   style="fill:#D9D8D7;"
   width="23.129"
   height="4.116"
   id="rect1516" />
	<rect
   x="296.517"
   y="94.683"
   style="fill:#D9D8D7;"
   width="5.649"
   height="4.118"
   id="rect1518" />
	<rect
   x="306.092"
   y="94.683"
   style="fill:#D9D8D7;"
   width="8.601"
   height="4.118"
   id="rect1520" />
	<rect
   x="318.449"
   y="94.683"
   style="fill:#D9D8D7;"
   width="8.596"
   height="4.118"
   id="rect1522" />
</g>
<path
   style="fill:#3E4959;"
   d="M290.826,80.236c0,2.863-2.316,5.184-5.179,5.184c-2.87,0-5.186-2.321-5.186-5.184  s2.316-5.182,5.186-5.182C288.51,75.052,290.826,77.374,290.826,80.236z"
   id="path1526" />
<path
   style="fill:#D9D8D7;"
   d="M290.826,96.743c0,2.86-2.316,5.182-5.179,5.182c-2.87,0-5.186-2.321-5.186-5.182  c0-2.863,2.316-5.184,5.186-5.184C288.51,91.557,290.826,93.881,290.826,96.743z"
   id="path1528" />
<path
   style="fill:#FF6D3B;"
   d="M290.826,113.246c0,2.86-2.316,5.182-5.179,5.182c-2.87,0-5.186-2.321-5.186-5.182  c0-2.863,2.316-5.184,5.186-5.184C288.51,108.059,290.826,110.383,290.826,113.246z"
   id="path1530" />
<path
   style="fill:#21D8DE;"
   d="M290.826,129.75c0,2.863-2.316,5.184-5.179,5.184c-2.87,0-5.186-2.321-5.186-5.184  c0-2.86,2.316-5.182,5.186-5.182C288.51,124.566,290.826,126.89,290.826,129.75z"
   id="path1532" />
<path
   style="fill:#FFFFFF;"
   d="M268.347,102.196c-14.27,0-25.841,11.567-25.841,25.836v193.499  c0,14.272-11.567,25.836-25.836,25.836H76.158V128.032c0-14.27,11.567-25.836,25.836-25.836H268.347z"
   id="path1534" />
<g
   id="g1546">
	<rect
   x="94.91"
   y="211.072"
   style="fill:#D9D8D7;"
   width="16.374"
   height="17.28"
   id="rect1536" />
	<rect
   x="123.028"
   y="181.854"
   style="fill:#D9D8D7;"
   width="16.379"
   height="46.479"
   id="rect1538" />
	<rect
   x="151.138"
   y="194.604"
   style="fill:#D9D8D7;"
   width="16.374"
   height="33.723"
   id="rect1540" />
	<rect
   x="179.249"
   y="158.986"
   style="fill:#D9D8D7;"
   width="16.369"
   height="69.342"
   id="rect1542" />
	<rect
   x="207.36"
   y="169.152"
   style="fill:#D9D8D7;"
   width="16.379"
   height="59.175"
   id="rect1544" />
</g>
<g
   id="g1558">
	<rect
   x="94.91"
   y="224.266"
   style="fill:#fb3d00;fill-opacity:1"
   width="16.374"
   height="4.071"
   id="rect1548" />
	<rect
   x="123.028"
   y="217.374"
   style="fill:#fb3d00;fill-opacity:1"
   width="16.379"
   height="10.949"
   id="rect1550" />
	<rect
   x="151.138"
   y="220.401"
   style="fill:#fb3d00;fill-opacity:1"
   width="16.374"
   height="7.943"
   id="rect1552" />
	<rect
   x="179.249"
   y="211.983"
   style="fill:#fb3d00;fill-opacity:1"
   width="16.369"
   height="16.34"
   id="rect1554" />
	<rect
   x="207.36"
   y="214.395"
   style="fill:#fb3d00;fill-opacity:1"
   width="16.379"
   height="13.942"
   id="rect1556" />
</g>
<g
   id="g1570">
	<rect
   x="94.91"
   y="204.032"
   style="fill:#21D8DE;"
   width="16.374"
   height="7.042"
   id="rect1560" />
	<rect
   x="123.028"
   y="159.97"
   style="fill:#21D8DE;"
   width="16.379"
   height="21.886"
   id="rect1562" />
	<rect
   x="151.138"
   y="190.124"
   style="fill:#21D8DE;"
   width="16.374"
   height="4.48"
   id="rect1564" />
	<rect
   x="179.249"
   y="148.574"
   style="fill:#21D8DE;"
   width="16.369"
   height="10.405"
   id="rect1566" />
	<rect
   x="207.36"
   y="142.297"
   style="fill:#21D8DE;"
   width="16.379"
   height="26.868"
   id="rect1568" />
</g>
<rect
   x="94.91"
   y="236.155"
   style="fill:#3E4959;"
   width="128.837"
   height="6.398"
   id="rect1572" />
<g
   id="g1588">
	<rect
   x="132.726"
   y="261.534"
   style="fill:#D9D8D7;"
   width="90.88"
   height="3.737"
   id="rect1574" />
	<rect
   x="94.91"
   y="261.534"
   style="fill:#D9D8D7;"
   width="30.725"
   height="3.737"
   id="rect1576" />
	<rect
   x="94.91"
   y="273.103"
   style="fill:#D9D8D7;"
   width="128.689"
   height="3.732"
   id="rect1578" />
	<rect
   x="94.91"
   y="284.647"
   style="fill:#D9D8D7;"
   width="64.345"
   height="3.732"
   id="rect1580" />
	<path
   style="fill:#D9D8D7;"
   d="M294.178,165.11v-37.078c0-14.27-11.567-25.836-25.836-25.836   c-14.265,0-25.836,11.567-25.836,25.836v62.914h77.509C305.75,190.944,294.178,179.38,294.178,165.11z"
   id="path1582" />
	<path
   style="fill:#D9D8D7;"
   d="M76.158,321.531v25.836H50.321C64.591,347.367,76.158,335.803,76.158,321.531z"
   id="path1584" />
	<path
   style="fill:#D9D8D7;"
   d="M216.667,347.367H50.321c-14.27,0-25.836-11.564-25.836-25.836v-25.863h166.356v25.863   C190.841,335.803,202.405,347.362,216.667,347.367z"
   id="path1586" />
</g>
<g
   id="g1590">
</g>
<g
   id="g1592">
</g>
<g
   id="g1594">
</g>
<g
   id="g1596">
</g>
<g
   id="g1598">
</g>
<g
   id="g1600">
</g>
<g
   id="g1602">
</g>
<g
   id="g1604">
</g>
<g
   id="g1606">
</g>
<g
   id="g1608">
</g>
<g
   id="g1610">
</g>
<g
   id="g1612">
</g>
<g
   id="g1614">
</g>
<g
   id="g1616">
</g>
<g
   id="g1618">
</g>
</svg>