<?xml version="1.0" encoding="UTF-8" standalone="no"?>
<!-- Generator: Adobe Illustrator 22.1.0, SVG Export Plug-In . SVG Version: 6.00 Build 0)  -->

<svg
   xmlns:dc="http://purl.org/dc/elements/1.1/"
   xmlns:cc="http://creativecommons.org/ns#"
   xmlns:rdf="http://www.w3.org/1999/02/22-rdf-syntax-ns#"
   xmlns:svg="http://www.w3.org/2000/svg"
   xmlns="http://www.w3.org/2000/svg"
   xmlns:sodipodi="http://sodipodi.sourceforge.net/DTD/sodipodi-0.dtd"
   xmlns:inkscape="http://www.inkscape.org/namespaces/inkscape"
   version="1.1"
   id="Layer_1_1_"
   x="0px"
   y="0px"
   viewBox="0 0 64 64"
   style="enable-background:new 0 0 64 64;"
   xml:space="preserve"
   width="512"
   height="512"
   sodipodi:docname="machine.svg"
   inkscape:version="0.92.3 (2405546, 2018-03-11)"><metadata
   id="metadata47"><rdf:RDF><cc:Work
       rdf:about=""><dc:format>image/svg+xml</dc:format><dc:type
         rdf:resource="http://purl.org/dc/dcmitype/StillImage" /></cc:Work></rdf:RDF></metadata><defs
   id="defs45" /><sodipodi:namedview
   pagecolor="#ffffff"
   bordercolor="#666666"
   borderopacity="1"
   objecttolerance="10"
   gridtolerance="10"
   guidetolerance="10"
   inkscape:pageopacity="0"
   inkscape:pageshadow="2"
   inkscape:window-width="1366"
   inkscape:window-height="704"
   id="namedview43"
   showgrid="false"
   inkscape:zoom="0.4609375"
   inkscape:cx="256"
   inkscape:cy="256"
   inkscape:window-x="0"
   inkscape:window-y="27"
   inkscape:window-maximized="1"
   inkscape:current-layer="g40" />
<g
   id="g40">
	<g
   id="g8">
		<path
   d="M55,16c0-3.309-2.691-6-6-6v2c2.206,0,4,1.794,4,4H55z"
   id="path2" />
		<path
   d="M46.465,35.707l-1.414,1.414c0.943,0.944,2.199,1.465,3.535,1.465s2.592-0.521,3.535-1.465    c0.944-0.943,1.465-2.199,1.465-3.535s-0.521-2.591-1.465-3.536l-1.414,1.414c0.566,0.567,0.879,1.32,0.879,2.122    c0,0.802-0.312,1.555-0.879,2.121C49.574,36.84,47.598,36.84,46.465,35.707z"
   id="path4" />
		<path
   d="M41,20v2c2.757,0,5-2.243,5-5s-2.243-5-5-5v2c1.654,0,3,1.346,3,3S42.654,20,41,20z"
   id="path6" />
	</g>
	<g
   id="g24">
		<g
   id="g18">
			<g
   id="g14">
				<path
   d="M35,10h2c0-1.654,1.346-3,3-3V5C37.243,5,35,7.243,35,10z"
   id="path10" />
				<path
   d="M63,32c0-4.253-2.108-8.238-5.562-10.656C58.422,19.796,59,17.966,59,16c0-5.514-4.486-10-10-10      c-0.301,0-0.606,0.016-0.922,0.047C46.58,2.999,43.429,1,40,1c-4.963,0-9,4.038-9,9v5h-2v-4h-2v4h-4v-4h-2v4h-4v-4h-2v4h-4v-4H9      v4H8.586L5,18.586V19H1v2h4v4H1v2h4v4H1v2h4v4H1v2h4v4H1v2h4v4h4v4h2v-4h4v4h2v-4h4v4h2v-4h4v4h2v-4h2v5c0,4.963,4.037,9,9,9      c3.608,0,6.717-2.138,8.152-5.21l0.048-0.01C53.299,56.744,57,52.211,57,47c0-1.26-0.214-2.493-0.639-3.676      C60.424,41.036,63,36.689,63,32z M54.666,41.949l-0.896,0.421l0.412,0.9C54.725,44.456,55,45.711,55,47      c0,3.889-2.523,7.309-6.14,8.526C48.946,55.029,49,54.521,49,54c0-1.582-0.417-3.138-1.205-4.501l-1.73,1.002      C46.677,51.56,47,52.77,47,54c0,3.859-3.141,7-7,7s-7-3.141-7-7V42h-2v5H7V19.414L9.414,17H31v5h2V10c0-3.86,3.141-7,7-7      c2.874,0,5.499,1.808,6.531,4.499l0.294,0.768l0.81-0.14C48.126,8.041,48.572,8,49,8c4.411,0,8,3.589,8,8s-3.589,8-8,8v2      c2.822,0,5.369-1.18,7.189-3.066C59.167,24.974,61,28.364,61,32C61,36.235,58.514,40.141,54.666,41.949z"
   id="path12" />
			</g>
			<path
   d="M37,54h-2c0,2.757,2.243,5,5,5v-2C38.346,57,37,55.654,37,54z"
   id="path16" />
		</g>
		<polygon
   points="9,45 27,45 27,43 11,43 11,27 9,27   "
   id="polygon20" />
		<path
   d="M15,22c0-1.654-1.346-3-3-3s-3,1.346-3,3s1.346,3,3,3S15,23.654,15,22z M11,22c0-0.551,0.448-1,1-1s1,0.449,1,1    s-0.448,1-1,1S11,22.551,11,22z"
   id="path22" />
	</g>
	<g
   id="g30">
		<g
   id="g28">
			<path
   style="fill:#00b8d4;fill-opacity:1"
   d="M34.721,43h-5.441l-0.818-2.456l-2.315,1.158l-3.848-3.848l1.158-2.315L21,34.721v-5.441     l2.456-0.818l-1.158-2.315l3.848-3.848l2.315,1.158L29.279,21h5.441l0.818,2.456l2.315-1.158l3.848,3.848l-1.158,2.315L43,29.279     v5.441l-2.456,0.818l1.158,2.315l-3.848,3.848l-2.315-1.158L34.721,43z"
   id="path26" />
		</g>
	</g>
	<g
   id="g34"
   style="fill:#fb3d00;fill-opacity:1">
		<path
   d="M32,37c-2.757,0-5-2.243-5-5s2.243-5,5-5s5,2.243,5,5S34.757,37,32,37z M32,29c-1.654,0-3,1.346-3,3s1.346,3,3,3    s3-1.346,3-3S33.654,29,32,29z"
   id="path32"
   style="fill:#fb3d00;fill-opacity:1" />
	</g>
	<g
   id="g38">
		<rect
   x="17"
   y="19"
   width="10"
   height="2"
   id="rect36" />
	</g>
</g>
</svg>