<?xml version="1.0" encoding="UTF-8" standalone="no"?>
<svg
   xmlns:dc="http://purl.org/dc/elements/1.1/"
   xmlns:cc="http://creativecommons.org/ns#"
   xmlns:rdf="http://www.w3.org/1999/02/22-rdf-syntax-ns#"
   xmlns:svg="http://www.w3.org/2000/svg"
   xmlns="http://www.w3.org/2000/svg"
   xmlns:sodipodi="http://sodipodi.sourceforge.net/DTD/sodipodi-0.dtd"
   xmlns:inkscape="http://www.inkscape.org/namespaces/inkscape"
   height="463pt"
   viewBox="0 0 463 463.9994"
   width="463pt"
   version="1.1"
   id="svg1803"
   sodipodi:docname="cloud-computing.svg"
   inkscape:version="0.92.3 (2405546, 2018-03-11)">
  <metadata
     id="metadata1809">
    <rdf:RDF>
      <cc:Work
         rdf:about="">
        <dc:format>image/svg+xml</dc:format>
        <dc:type
           rdf:resource="http://purl.org/dc/dcmitype/StillImage" />
      </cc:Work>
    </rdf:RDF>
  </metadata>
  <defs
     id="defs1807" />
  <sodipodi:namedview
     pagecolor="#ffffff"
     bordercolor="#666666"
     borderopacity="1"
     objecttolerance="10"
     gridtolerance="10"
     guidetolerance="10"
     inkscape:pageopacity="0"
     inkscape:pageshadow="2"
     inkscape:window-width="1366"
     inkscape:window-height="704"
     id="namedview1805"
     showgrid="false"
     inkscape:zoom="0.38228942"
     inkscape:cx="308.66667"
     inkscape:cy="308.66667"
     inkscape:window-x="0"
     inkscape:window-y="27"
     inkscape:window-maximized="1"
     inkscape:current-layer="svg1803" />
  <path
     d="m405.09375 199.777344c34.046875-2.824219 59.871094-31.890625 58.667969-66.035156-1.199219-34.140626-29.003907-61.320313-63.164063-61.742188-2.445312.011719-4.890625.160156-7.320312.449219-15.21875-40.449219-52.378906-68.503907-95.445313-72.070313-43.070312-3.5625-84.335937 18.007813-105.992187 55.40625-14.585938-24.929687-44.054688-37-71.933594-29.46875-27.878906 7.535156-47.261719 32.804688-47.308594 61.683594 0 .800781.089844 1.597656.121094 2.398438-21.050781-6.367188-43.878906.171874-58.359375 16.722656-14.484375 16.546875-17.941406 40.042968-8.835937 60.0625 9.105468 20.019531 29.082031 32.855468 51.074218 32.816406"
     fill="#20b2ad"
     id="path1773"
     style="fill:#00b8d4;fill-opacity:1" />
  <path
     d="m429.09375 159.777344-348.496094.222656c-30.925781 0-56-25.074219-56-56 .007813-2.070312.128906-4.136719.359375-6.191406-20.242187 13.871094-29.09375 39.308594-21.835937 62.753906 7.257812 23.441406 28.9375 39.429688 53.476562 39.4375l348.496094-.222656c29.464844-2.082032 53.675781-24.070313 58.566406-53.203125-9.960937 7.722656-21.992187 12.316406-34.566406 13.203125zm0 0"
     fill="#1b8984"
     id="path1775"
     style="fill:#009da0;fill-opacity:1" />
  <path
     d="m96.597656 432c-4.417968 0-8-3.582031-8-8v-48c0-4.417969 3.582032-8 8-8h312v-32h-312c-22.089844 0-40 17.90625-40 40v48c0 22.089844 17.910156 40 40 40h312v-32zm0 0"
     fill="#800080"
     id="path1777"
     style="fill:#00b8d4;fill-opacity:1" />
  <path
     d="m392.597656 368v64h-296c-4.417968 0-8-3.582031-8-8v-48c0-4.417969 3.582032-8 8-8zm0 0"
     fill="#ffd700"
     id="path1779" />
  <path
     d="m392.597656 368v16h-304v-8c0-4.417969 3.582032-8 8-8zm0 0"
     fill="#e5c200"
     id="path1781" />
  <path
     d="m392.597656 416h-256c-8.835937 0-16-7.164062-16-16s7.164063-16 16-16h256zm0 0"
     fill="#006"
     id="path1783" />
  <path
     d="m368.597656 272c4.417969 0 8-3.582031 8-8v-48c0-4.417969-3.582031-8-8-8h-312v-32h312c22.089844 0 40 17.90625 40 40v48c0 22.089844-17.910156 40-40 40h-312v-32zm0 0"
     fill="#ff7f00"
     id="path1785"
     style="fill:#ff3d00;fill-opacity:1" />
  <path
     d="m376.597656 216v48c0 4.417969-3.582031 8-8 8h-296v-64h296c4.417969 0 8 3.582031 8 8zm0 0"
     fill="#ffd700"
     id="path1787" />
  <path
     d="m376.597656 216v8h-304v-16h296c4.417969 0 8 3.582031 8 8zm0 0"
     fill="#e5c200"
     id="path1789" />
  <path
     d="m72.597656 224h256c8.835938 0 16 7.164062 16 16s-7.164062 16-16 16h-256zm0 0"
     fill="#006"
     id="path1791" />
  <path
     d="m328.597656 112h-48l24-40zm0 0"
     fill="#ff7f00"
     id="path1793" />
  <path
     d="m168.597656 104h-48l24 40zm0 0"
     fill="#ff7f00"
     id="path1795" />
  <g
     fill="#006"
     id="g1801">
    <path
       d="m335.453125 107.878906-24-40c-1.550781-2.261718-4.113281-3.613281-6.855469-3.613281-2.742187 0-5.304687 1.351563-6.855468 3.613281l-24 40c-1.484376 2.472656-1.523438 5.550782-.105469 8.058594 1.417969 2.511719 4.078125 4.0625 6.960937 4.0625h16v24c0 4.417969 3.582032 8 8 8 4.417969 0 8-3.582031 8-8v-24h16c2.882813 0 5.542969-1.550781 6.960938-4.0625 1.421875-2.507812 1.378906-5.585938-.105469-8.058594zm-40.71875-3.878906 9.863281-16.449219 9.863282 16.449219zm0 0"
       id="path1797" />
    <path
       d="m168.597656 96h-16v-24c0-4.417969-3.582031-8-8-8-4.417968 0-8 3.582031-8 8v24h-16c-2.882812 0-5.542968 1.550781-6.960937 4.058594-1.417969 2.511718-1.378907 5.589844.105469 8.0625l24 40c1.445312 2.402344 4.046874 3.875 6.855468 3.875s5.410156-1.472656 6.855469-3.875l24-40c1.484375-2.472656 1.527344-5.550782.105469-8.0625-1.417969-2.507813-4.078125-4.058594-6.960938-4.058594zm-24 32.449219-9.863281-16.449219h19.726563zm0 0"
       id="path1799" />
  </g>
</svg>
